<?xml version="1.0" encoding="utf-8"?>
<!-- Generator: Adobe Illustrator 23.0.3, SVG Export Plug-In . SVG Version: 6.00 Build 0)  -->
<svg version="1.1" xmlns="http://www.w3.org/2000/svg" xmlns:xlink="http://www.w3.org/1999/xlink" x="0px" y="0px"
	 viewBox="0 0 256 256" style="enable-background:new 0 0 256 256;" xml:space="preserve">
<style type="text/css">
	.st0{display:none;}
	.st1{display:inline;fill:#22B0A6;}
	.st2{display:inline;fill:#DB9842;}
	.st3{display:inline;fill:#FAAA43;}
	.st4{display:inline;fill:#6ABFB9;}
	.st5{display:inline;}
	.st6{opacity:0.22;clip-path:url(#SVGID_2_);}
	.st7{fill:#FFFFFF;stroke:#FFFFFF;stroke-width:8;stroke-miterlimit:10;}
	.st8{display:inline;fill:#FAE6AB;}
	.st9{display:inline;opacity:0.54;}
	.st10{fill:#FBD76B;}
	.st11{display:inline;fill:#4A9E48;}
	.st12{display:inline;fill:#6ABF68;}
	.st13{opacity:0.22;clip-path:url(#SVGID_4_);}
	.st14{display:inline;fill:#D74F27;}
	.st15{display:inline;fill:#FBAF51;}
	.st16{display:inline;fill:#FEC551;}
	.st17{display:inline;fill:#E46C2C;}
	.st18{opacity:0.22;clip-path:url(#SVGID_6_);}
	.st19{fill:#FCB750;}
	.st20{display:inline;fill:#BA2E2C;}
	.st21{display:inline;fill:#CE3030;}
	.st22{display:inline;fill:#BCAE31;}
	.st23{display:inline;fill:#D1CA38;}
	.st24{display:inline;fill:#EF4136;}
	.st25{opacity:0.22;clip-path:url(#SVGID_8_);}
	.st26{fill:#E4D95D;}
	.st27{opacity:0.22;clip-path:url(#SVGID_10_);}
	.st28{fill:#FAE6AB;}
	.st29{opacity:0.22;clip-path:url(#SVGID_12_);}
	.st30{opacity:0.2;fill:#BFBEBD;}
	.st31{fill:#BA2E2C;}
	.st32{fill:#CE3030;}
	.st33{fill:#BCAE31;}
	.st34{fill:#D1CA38;}
	.st35{fill:#EF4136;}
	.st36{opacity:0.22;clip-path:url(#SVGID_14_);}
</style>
<g id="SOUPB_copy" class="st0">
	<ellipse class="st1" cx="128.48" cy="207.17" rx="63.11" ry="23.46"/>
	<ellipse class="st1" cx="128.48" cy="114.7" rx="105.16" ry="41.13"/>
	<ellipse class="st2" cx="128.48" cy="128.41" rx="89.67" ry="35.21"/>
	<ellipse class="st3" cx="128.48" cy="139.41" rx="79.95" ry="35.21"/>
	<path class="st4" d="M128.48,139.59c-38.52,0-85.53-6.57-105.16-22.5c1.5,56.81,47.99,97.66,105.16,97.66
		s103.66-40.85,105.16-97.66C210.02,132.23,167,139.59,128.48,139.59z"/>
	<g class="st5">
		<defs>
			<path id="SVGID_1_" d="M128.48,139.59c-38.52,0-85.53-6.57-105.16-22.5c1.5,56.81,47.99,97.66,105.16,97.66
				s103.66-40.85,105.16-97.66C210.02,132.23,167,139.59,128.48,139.59z"/>
		</defs>
		<clipPath id="SVGID_2_">
			<use xlink:href="#SVGID_1_"  style="overflow:visible;"/>
		</clipPath>
		<g class="st6">
			<path class="st7" d="M128,148.71c-57.87,0-116.46-14.94-116.46-43.51c0-2.62,2.13-4.75,4.75-4.75s4.75,2.13,4.75,4.75
				c0,16.35,40.89,34.01,106.95,34.01c66.06,0,106.95-17.65,106.95-34.01c0-2.62,2.13-4.75,4.75-4.75s4.75,2.13,4.75,4.75
				C244.45,133.76,185.87,148.71,128,148.71z"/>
		</g>
	</g>
	<g>
		<path class="st8" d="M78.94,112.97c-2.05,0-4.05-1.07-5.15-2.97c-1.64-2.84-0.66-6.47,2.18-8.11c4.75-2.74,7.61-5.53,8.51-8.29
			c2.37-7.24-1.63-13.03-5.51-18.63c-1.42-2.05-2.76-3.99-3.75-5.97c-6.28-12.61-3.8-25.52,8.05-41.85
			c1.93-2.66,5.64-3.24,8.29-1.32c2.65,1.93,3.24,5.64,1.32,8.29c-11.37,15.67-9.94,23.75-7.03,29.58c0.61,1.22,1.71,2.82,2.88,4.51
			c4.47,6.46,11.23,16.23,7.03,29.08c-1.87,5.71-6.4,10.58-13.87,14.88C80.97,112.72,79.95,112.97,78.94,112.97z"/>
	</g>
	<g>
		<path class="st8" d="M123.86,112.97c-2.05,0-4.05-1.07-5.15-2.97c-1.64-2.84-0.66-6.47,2.18-8.11c4.75-2.74,7.61-5.53,8.52-8.29
			c2.37-7.24-1.63-13.03-5.51-18.62c-1.42-2.05-2.76-3.99-3.75-5.97c-6.28-12.61-3.8-25.52,8.05-41.85
			c1.93-2.66,5.64-3.24,8.29-1.32c2.65,1.93,3.24,5.64,1.32,8.29c-11.37,15.67-9.94,23.75-7.03,29.58c0.61,1.22,1.71,2.82,2.89,4.51
			c4.47,6.46,11.23,16.23,7.02,29.08c-1.87,5.71-6.4,10.58-13.87,14.88C125.89,112.72,124.87,112.97,123.86,112.97z"/>
	</g>
	<g>
		<path class="st8" d="M166.91,112.97c-2.05,0-4.05-1.07-5.15-2.97c-1.64-2.84-0.67-6.47,2.18-8.11c4.75-2.74,7.61-5.53,8.51-8.29
			c2.37-7.24-1.63-13.03-5.51-18.63c-1.42-2.05-2.76-3.99-3.75-5.97c-6.28-12.61-3.8-25.52,8.05-41.85
			c1.93-2.65,5.64-3.24,8.29-1.32c2.65,1.93,3.24,5.64,1.32,8.29c-11.37,15.67-9.94,23.74-7.03,29.57c0.61,1.22,1.72,2.82,2.89,4.51
			c4.47,6.46,11.23,16.23,7.03,29.08c-1.87,5.71-6.4,10.58-13.87,14.88C168.94,112.72,167.92,112.97,166.91,112.97z"/>
	</g>
	<g class="st9">
		<circle class="st10" cx="131.53" cy="122.6" r="4.86"/>
		<circle class="st10" cx="171.5" cy="120.94" r="4.86"/>
		<circle class="st10" cx="92.88" cy="128.41" r="4.86"/>
		<circle class="st10" cx="106.31" cy="113.61" r="2.47"/>
		<circle class="st10" cx="151.81" cy="132.39" r="2.47"/>
		<circle class="st10" cx="186.15" cy="128" r="2.47"/>
		<circle class="st10" cx="150.93" cy="113.61" r="2.47"/>
		<circle class="st10" cx="117.31" cy="132.94" r="2.47"/>
		<circle class="st10" cx="69.98" cy="121.56" r="2.47"/>
	</g>
</g>
<g id="SOUPB_copy_2" class="st0">
	<ellipse class="st11" cx="128.48" cy="207.17" rx="63.11" ry="23.46"/>
	<ellipse class="st11" cx="128.48" cy="114.7" rx="105.16" ry="41.13"/>
	<ellipse class="st2" cx="128.48" cy="128.41" rx="89.67" ry="35.21"/>
	<ellipse class="st3" cx="128.48" cy="139.41" rx="79.95" ry="35.21"/>
	<path class="st12" d="M128.48,139.59c-38.52,0-85.53-6.57-105.16-22.5c1.5,56.81,47.99,97.66,105.16,97.66
		s103.66-40.85,105.16-97.66C210.02,132.23,167,139.59,128.48,139.59z"/>
	<g class="st5">
		<defs>
			<path id="SVGID_3_" d="M128.48,139.59c-38.52,0-85.53-6.57-105.16-22.5c1.5,56.81,47.99,97.66,105.16,97.66
				s103.66-40.85,105.16-97.66C210.02,132.23,167,139.59,128.48,139.59z"/>
		</defs>
		<clipPath id="SVGID_4_">
			<use xlink:href="#SVGID_3_"  style="overflow:visible;"/>
		</clipPath>
		<g class="st13">
			<path class="st7" d="M128,148.71c-57.87,0-116.46-14.94-116.46-43.51c0-2.62,2.13-4.75,4.75-4.75s4.75,2.13,4.75,4.75
				c0,16.35,40.89,34.01,106.95,34.01c66.06,0,106.95-17.65,106.95-34.01c0-2.62,2.13-4.75,4.75-4.75s4.75,2.13,4.75,4.75
				C244.45,133.76,185.87,148.71,128,148.71z"/>
		</g>
	</g>
	<g>
		<path class="st8" d="M78.94,112.97c-2.05,0-4.05-1.07-5.15-2.97c-1.64-2.84-0.66-6.47,2.18-8.11c4.75-2.74,7.61-5.53,8.51-8.29
			c2.37-7.24-1.63-13.03-5.51-18.63c-1.42-2.05-2.76-3.99-3.75-5.97c-6.28-12.61-3.8-25.52,8.05-41.85
			c1.93-2.66,5.64-3.24,8.29-1.32c2.65,1.93,3.24,5.64,1.32,8.29c-11.37,15.67-9.94,23.75-7.03,29.58c0.61,1.22,1.71,2.82,2.88,4.51
			c4.47,6.46,11.23,16.23,7.03,29.08c-1.87,5.71-6.4,10.58-13.87,14.88C80.97,112.72,79.95,112.97,78.94,112.97z"/>
	</g>
	<g>
		<path class="st8" d="M123.86,112.97c-2.05,0-4.05-1.07-5.15-2.97c-1.64-2.84-0.66-6.47,2.18-8.11c4.75-2.74,7.61-5.53,8.52-8.29
			c2.37-7.24-1.63-13.03-5.51-18.62c-1.42-2.05-2.76-3.99-3.75-5.97c-6.28-12.61-3.8-25.52,8.05-41.85
			c1.93-2.66,5.64-3.24,8.29-1.32c2.65,1.93,3.24,5.64,1.32,8.29c-11.37,15.67-9.94,23.75-7.03,29.58c0.61,1.22,1.71,2.82,2.89,4.51
			c4.47,6.46,11.23,16.23,7.02,29.08c-1.87,5.71-6.4,10.58-13.87,14.88C125.89,112.72,124.87,112.97,123.86,112.97z"/>
	</g>
	<g>
		<path class="st8" d="M166.91,112.97c-2.05,0-4.05-1.07-5.15-2.97c-1.64-2.84-0.67-6.47,2.18-8.11c4.75-2.74,7.61-5.53,8.51-8.29
			c2.37-7.24-1.63-13.03-5.51-18.63c-1.42-2.05-2.76-3.99-3.75-5.97c-6.28-12.61-3.8-25.52,8.05-41.85
			c1.93-2.65,5.64-3.24,8.29-1.32c2.65,1.93,3.24,5.64,1.32,8.29c-11.37,15.67-9.94,23.74-7.03,29.57c0.61,1.22,1.72,2.82,2.89,4.51
			c4.47,6.46,11.23,16.23,7.03,29.08c-1.87,5.71-6.4,10.58-13.87,14.88C168.94,112.72,167.92,112.97,166.91,112.97z"/>
	</g>
	<g class="st9">
		<circle class="st10" cx="131.53" cy="122.6" r="4.86"/>
		<circle class="st10" cx="171.5" cy="120.94" r="4.86"/>
		<circle class="st10" cx="92.88" cy="128.41" r="4.86"/>
		<circle class="st10" cx="106.31" cy="113.61" r="2.47"/>
		<circle class="st10" cx="151.81" cy="132.39" r="2.47"/>
		<circle class="st10" cx="186.15" cy="128" r="2.47"/>
		<circle class="st10" cx="150.93" cy="113.61" r="2.47"/>
		<circle class="st10" cx="117.31" cy="132.94" r="2.47"/>
		<circle class="st10" cx="69.98" cy="121.56" r="2.47"/>
	</g>
</g>
<g id="SOUPS_copy" class="st0">
	<ellipse class="st14" cx="128.48" cy="207.17" rx="63.11" ry="23.46"/>
	<ellipse class="st14" cx="128.48" cy="114.7" rx="105.16" ry="41.13"/>
	<ellipse class="st15" cx="128.48" cy="128.41" rx="89.67" ry="35.21"/>
	<ellipse class="st16" cx="128.48" cy="139.41" rx="79.95" ry="35.21"/>
	<path class="st17" d="M128.48,139.59c-38.52,0-85.53-6.57-105.16-22.5c1.5,56.81,47.99,97.66,105.16,97.66
		s103.66-40.85,105.16-97.66C210.02,132.23,167,139.59,128.48,139.59z"/>
	<g class="st5">
		<defs>
			<path id="SVGID_5_" d="M128,139.59c-38.52,0-85.53-6.57-105.16-22.5c1.5,56.81,47.99,97.66,105.16,97.66
				s103.66-40.85,105.16-97.66C209.54,132.23,166.52,139.59,128,139.59z"/>
		</defs>
		<clipPath id="SVGID_6_">
			<use xlink:href="#SVGID_5_"  style="overflow:visible;"/>
		</clipPath>
		<g class="st18">
			<path class="st7" d="M128,148.71c-57.87,0-116.46-14.94-116.46-43.51c0-2.62,2.13-4.75,4.75-4.75s4.75,2.13,4.75,4.75
				c0,16.35,40.89,34.01,106.95,34.01c66.06,0,106.95-17.65,106.95-34.01c0-2.62,2.13-4.75,4.75-4.75s4.75,2.13,4.75,4.75
				C244.45,133.76,185.87,148.71,128,148.71z"/>
		</g>
	</g>
	<g>
		<path class="st8" d="M78.94,112.97c-2.05,0-4.05-1.07-5.15-2.97c-1.64-2.84-0.66-6.47,2.18-8.11c4.75-2.74,7.61-5.53,8.51-8.29
			c2.37-7.24-1.63-13.03-5.51-18.63c-1.42-2.05-2.76-3.99-3.75-5.97c-6.28-12.61-3.8-25.52,8.05-41.85
			c1.93-2.66,5.64-3.24,8.29-1.32c2.65,1.93,3.24,5.64,1.32,8.29c-11.37,15.67-9.94,23.75-7.03,29.58c0.61,1.22,1.71,2.82,2.88,4.51
			c4.47,6.46,11.23,16.23,7.03,29.08c-1.87,5.71-6.4,10.58-13.87,14.88C80.97,112.72,79.95,112.97,78.94,112.97z"/>
	</g>
	<g>
		<path class="st8" d="M123.86,112.97c-2.05,0-4.05-1.07-5.15-2.97c-1.64-2.84-0.66-6.47,2.18-8.11c4.75-2.74,7.61-5.53,8.52-8.29
			c2.37-7.24-1.63-13.03-5.51-18.62c-1.42-2.05-2.76-3.99-3.75-5.97c-6.28-12.61-3.8-25.52,8.05-41.85
			c1.93-2.66,5.64-3.24,8.29-1.32c2.65,1.93,3.24,5.64,1.32,8.29c-11.37,15.67-9.94,23.75-7.03,29.58c0.61,1.22,1.71,2.82,2.89,4.51
			c4.47,6.46,11.23,16.23,7.02,29.08c-1.87,5.71-6.4,10.58-13.87,14.88C125.89,112.72,124.87,112.97,123.86,112.97z"/>
	</g>
	<g>
		<path class="st8" d="M166.91,112.97c-2.05,0-4.05-1.07-5.15-2.97c-1.64-2.84-0.67-6.47,2.18-8.11c4.75-2.74,7.61-5.53,8.51-8.29
			c2.37-7.24-1.63-13.03-5.51-18.63c-1.42-2.05-2.76-3.99-3.75-5.97c-6.28-12.61-3.8-25.52,8.05-41.85
			c1.93-2.65,5.64-3.24,8.29-1.32c2.65,1.93,3.24,5.64,1.32,8.29c-11.37,15.67-9.94,23.74-7.03,29.57c0.61,1.22,1.72,2.82,2.89,4.51
			c4.47,6.46,11.23,16.23,7.03,29.08c-1.87,5.71-6.4,10.58-13.87,14.88C168.94,112.72,167.92,112.97,166.91,112.97z"/>
	</g>
	<g class="st5">
		<circle class="st19" cx="131.53" cy="122.6" r="4.86"/>
		<circle class="st19" cx="171.5" cy="120.94" r="4.86"/>
		<circle class="st19" cx="92.88" cy="128.41" r="4.86"/>
		<circle class="st19" cx="106.31" cy="113.61" r="2.47"/>
		<circle class="st19" cx="151.81" cy="132.39" r="2.47"/>
		<circle class="st19" cx="186.15" cy="128" r="2.47"/>
		<circle class="st19" cx="150.93" cy="113.61" r="2.47"/>
		<circle class="st19" cx="117.31" cy="132.94" r="2.47"/>
		<circle class="st19" cx="69.98" cy="121.56" r="2.47"/>
	</g>
</g>
<g id="SOUP_copy" class="st0">
	<ellipse class="st20" cx="128.48" cy="207.17" rx="63.11" ry="23.46"/>
	<ellipse class="st21" cx="128.48" cy="114.7" rx="105.16" ry="41.13"/>
	<ellipse class="st22" cx="128.48" cy="128.41" rx="89.67" ry="35.21"/>
	<ellipse class="st23" cx="128.48" cy="139.41" rx="79.95" ry="35.21"/>
	<path class="st24" d="M128.48,139.59c-38.52,0-85.53-6.57-105.16-22.5c1.5,56.81,47.99,97.66,105.16,97.66
		s103.66-40.85,105.16-97.66C210.02,132.23,167,139.59,128.48,139.59z"/>
	<g class="st5">
		<defs>
			<path id="SVGID_7_" d="M128.48,139.59c-38.52,0-85.53-6.57-105.16-22.5c1.5,56.81,47.99,97.66,105.16,97.66
				s103.66-40.85,105.16-97.66C210.02,132.23,167,139.59,128.48,139.59z"/>
		</defs>
		<clipPath id="SVGID_8_">
			<use xlink:href="#SVGID_7_"  style="overflow:visible;"/>
		</clipPath>
		<g class="st25">
			<path class="st7" d="M128.48,148.71c-57.87,0-116.46-14.94-116.46-43.51c0-2.62,2.13-4.75,4.75-4.75s4.75,2.13,4.75,4.75
				c0,16.35,40.89,34.01,106.95,34.01c66.06,0,106.95-17.65,106.95-34.01c0-2.62,2.13-4.75,4.75-4.75c2.62,0,4.75,2.13,4.75,4.75
				C244.94,133.76,186.35,148.71,128.48,148.71z"/>
		</g>
	</g>
	<g>
		<path class="st8" d="M78.94,112.97c-2.05,0-4.05-1.07-5.15-2.97c-1.64-2.84-0.66-6.47,2.18-8.11c4.75-2.74,7.61-5.53,8.51-8.29
			c2.37-7.24-1.63-13.03-5.51-18.63c-1.42-2.05-2.76-3.99-3.75-5.97c-6.28-12.61-3.8-25.52,8.05-41.85
			c1.93-2.66,5.64-3.24,8.29-1.32c2.65,1.93,3.24,5.64,1.32,8.29c-11.37,15.67-9.94,23.75-7.03,29.58c0.61,1.22,1.71,2.82,2.88,4.51
			c4.47,6.46,11.23,16.23,7.03,29.08c-1.87,5.71-6.4,10.58-13.87,14.88C80.97,112.72,79.95,112.97,78.94,112.97z"/>
	</g>
	<g>
		<path class="st8" d="M123.86,112.97c-2.05,0-4.05-1.07-5.15-2.97c-1.64-2.84-0.66-6.47,2.18-8.11c4.75-2.74,7.61-5.53,8.52-8.29
			c2.37-7.24-1.63-13.03-5.51-18.62c-1.42-2.05-2.76-3.99-3.75-5.97c-6.28-12.61-3.8-25.52,8.05-41.85
			c1.93-2.66,5.64-3.24,8.29-1.32c2.65,1.93,3.24,5.64,1.32,8.29c-11.37,15.67-9.94,23.75-7.03,29.58c0.61,1.22,1.71,2.82,2.89,4.51
			c4.47,6.46,11.23,16.23,7.02,29.08c-1.87,5.71-6.4,10.58-13.87,14.88C125.89,112.72,124.87,112.97,123.86,112.97z"/>
	</g>
	<g>
		<path class="st8" d="M166.91,112.97c-2.05,0-4.05-1.07-5.15-2.97c-1.64-2.84-0.67-6.47,2.18-8.11c4.75-2.74,7.61-5.53,8.51-8.29
			c2.37-7.24-1.63-13.03-5.51-18.63c-1.42-2.05-2.76-3.99-3.75-5.97c-6.28-12.61-3.8-25.52,8.05-41.85
			c1.93-2.65,5.64-3.24,8.29-1.32c2.65,1.93,3.24,5.64,1.32,8.29c-11.37,15.67-9.94,23.74-7.03,29.57c0.61,1.22,1.72,2.82,2.89,4.51
			c4.47,6.46,11.23,16.23,7.03,29.08c-1.87,5.71-6.4,10.58-13.87,14.88C168.94,112.72,167.92,112.97,166.91,112.97z"/>
	</g>
	<g class="st5">
		<circle class="st26" cx="131.53" cy="122.6" r="4.86"/>
		<circle class="st26" cx="171.5" cy="120.94" r="4.86"/>
		<circle class="st26" cx="92.88" cy="128.41" r="4.86"/>
		<circle class="st26" cx="106.31" cy="113.61" r="2.47"/>
		<circle class="st26" cx="151.81" cy="132.39" r="2.47"/>
		<circle class="st26" cx="186.15" cy="128" r="2.47"/>
		<circle class="st26" cx="150.93" cy="113.61" r="2.47"/>
		<circle class="st26" cx="117.31" cy="132.94" r="2.47"/>
		<circle class="st26" cx="69.98" cy="121.56" r="2.47"/>
	</g>
</g>
<g id="SOUPB" class="st0">
	<ellipse class="st11" cx="128.48" cy="207.17" rx="63.11" ry="23.46"/>
	<ellipse class="st11" cx="128.48" cy="114.7" rx="105.16" ry="41.13"/>
	<ellipse class="st2" cx="128.48" cy="128.41" rx="89.67" ry="35.21"/>
	<ellipse class="st3" cx="128.48" cy="139.41" rx="79.95" ry="35.21"/>
	<path class="st12" d="M128.48,139.59c-38.52,0-85.53-6.57-105.16-22.5c1.5,56.81,47.99,97.66,105.16,97.66
		s103.66-40.85,105.16-97.66C210.02,132.23,167,139.59,128.48,139.59z"/>
	<g class="st5">
		<defs>
			<path id="SVGID_9_" d="M128.48,139.59c-38.52,0-85.53-6.57-105.16-22.5c1.5,56.81,47.99,97.66,105.16,97.66
				s103.66-40.85,105.16-97.66C210.02,132.23,167,139.59,128.48,139.59z"/>
		</defs>
		<clipPath id="SVGID_10_">
			<use xlink:href="#SVGID_9_"  style="overflow:visible;"/>
		</clipPath>
		<g class="st27">
			<path class="st7" d="M128,148.71c-57.87,0-116.46-14.94-116.46-43.51c0-2.62,2.13-4.75,4.75-4.75s4.75,2.13,4.75,4.75
				c0,16.35,40.89,34.01,106.95,34.01c66.06,0,106.95-17.65,106.95-34.01c0-2.62,2.13-4.75,4.75-4.75s4.75,2.13,4.75,4.75
				C244.45,133.76,185.87,148.71,128,148.71z"/>
		</g>
	</g>
	<g class="st5">
		<path class="st28" d="M78.94,112.97c-2.05,0-4.05-1.07-5.15-2.97c-1.64-2.84-0.66-6.47,2.18-8.11c4.75-2.74,7.61-5.53,8.51-8.29
			c2.37-7.24-1.63-13.03-5.51-18.63c-1.42-2.05-2.76-3.99-3.75-5.97c-6.28-12.61-3.8-25.52,8.05-41.85
			c1.93-2.66,5.64-3.24,8.29-1.32c2.65,1.93,3.24,5.64,1.32,8.29c-11.37,15.67-9.94,23.75-7.03,29.58c0.61,1.22,1.71,2.82,2.88,4.51
			c4.47,6.46,11.23,16.23,7.03,29.08c-1.87,5.71-6.4,10.58-13.87,14.88C80.97,112.72,79.95,112.97,78.94,112.97z"/>
	</g>
	<g class="st5">
		<path class="st28" d="M123.86,112.97c-2.05,0-4.05-1.07-5.15-2.97c-1.64-2.84-0.66-6.47,2.18-8.11c4.75-2.74,7.61-5.53,8.52-8.29
			c2.37-7.24-1.63-13.03-5.51-18.62c-1.42-2.05-2.76-3.99-3.75-5.97c-6.28-12.61-3.8-25.52,8.05-41.85
			c1.93-2.66,5.64-3.24,8.29-1.32c2.65,1.93,3.24,5.64,1.32,8.29c-11.37,15.67-9.94,23.75-7.03,29.58c0.61,1.22,1.71,2.82,2.89,4.51
			c4.47,6.46,11.23,16.23,7.02,29.08c-1.87,5.71-6.4,10.58-13.87,14.88C125.89,112.72,124.87,112.97,123.86,112.97z"/>
	</g>
	<g class="st5">
		<path class="st28" d="M166.91,112.97c-2.05,0-4.05-1.07-5.15-2.97c-1.64-2.84-0.67-6.47,2.18-8.11c4.75-2.74,7.61-5.53,8.51-8.29
			c2.37-7.24-1.63-13.03-5.51-18.63c-1.42-2.05-2.76-3.99-3.75-5.97c-6.28-12.61-3.8-25.52,8.05-41.85
			c1.93-2.65,5.64-3.24,8.29-1.32c2.65,1.93,3.24,5.64,1.32,8.29c-11.37,15.67-9.94,23.74-7.03,29.57c0.61,1.22,1.72,2.82,2.89,4.51
			c4.47,6.46,11.23,16.23,7.03,29.08c-1.87,5.71-6.4,10.58-13.87,14.88C168.94,112.72,167.92,112.97,166.91,112.97z"/>
	</g>
	<g class="st9">
		<circle class="st10" cx="131.53" cy="122.6" r="4.86"/>
		<circle class="st10" cx="171.5" cy="120.94" r="4.86"/>
		<circle class="st10" cx="92.88" cy="128.41" r="4.86"/>
		<circle class="st10" cx="106.31" cy="113.61" r="2.47"/>
		<circle class="st10" cx="151.81" cy="132.39" r="2.47"/>
		<circle class="st10" cx="186.15" cy="128" r="2.47"/>
		<circle class="st10" cx="150.93" cy="113.61" r="2.47"/>
		<circle class="st10" cx="117.31" cy="132.94" r="2.47"/>
		<circle class="st10" cx="69.98" cy="121.56" r="2.47"/>
	</g>
</g>
<g id="SOUPS" class="st0">
	<ellipse class="st14" cx="128.48" cy="207.17" rx="63.11" ry="23.46"/>
	<ellipse class="st14" cx="128.48" cy="114.7" rx="105.16" ry="41.13"/>
	<ellipse class="st15" cx="128.48" cy="128.41" rx="89.67" ry="35.21"/>
	<ellipse class="st16" cx="128.48" cy="139.41" rx="79.95" ry="35.21"/>
	<path class="st17" d="M128.48,139.59c-38.52,0-85.53-6.57-105.16-22.5c1.5,56.81,47.99,97.66,105.16,97.66
		s103.66-40.85,105.16-97.66C210.02,132.23,167,139.59,128.48,139.59z"/>
	<g class="st5">
		<defs>
			<path id="SVGID_11_" d="M128,139.59c-38.52,0-85.53-6.57-105.16-22.5c1.5,56.81,47.99,97.66,105.16,97.66
				s103.66-40.85,105.16-97.66C209.54,132.23,166.52,139.59,128,139.59z"/>
		</defs>
		<clipPath id="SVGID_12_">
			<use xlink:href="#SVGID_11_"  style="overflow:visible;"/>
		</clipPath>
		<g class="st29">
			<path class="st7" d="M128,148.71c-57.87,0-116.46-14.94-116.46-43.51c0-2.62,2.13-4.75,4.75-4.75s4.75,2.13,4.75,4.75
				c0,16.35,40.89,34.01,106.95,34.01c66.06,0,106.95-17.65,106.95-34.01c0-2.62,2.13-4.75,4.75-4.75s4.75,2.13,4.75,4.75
				C244.45,133.76,185.87,148.71,128,148.71z"/>
		</g>
	</g>
	<g class="st5">
		<path class="st28" d="M78.94,112.97c-2.05,0-4.05-1.07-5.15-2.97c-1.64-2.84-0.66-6.47,2.18-8.11c4.75-2.74,7.61-5.53,8.51-8.29
			c2.37-7.24-1.63-13.03-5.51-18.63c-1.42-2.05-2.76-3.99-3.75-5.97c-6.28-12.61-3.8-25.52,8.05-41.85
			c1.93-2.66,5.64-3.24,8.29-1.32c2.65,1.93,3.24,5.64,1.32,8.29c-11.37,15.67-9.94,23.75-7.03,29.58c0.61,1.22,1.71,2.82,2.88,4.51
			c4.47,6.46,11.23,16.23,7.03,29.08c-1.87,5.71-6.4,10.58-13.87,14.88C80.97,112.72,79.95,112.97,78.94,112.97z"/>
	</g>
	<g class="st5">
		<path class="st28" d="M123.86,112.97c-2.05,0-4.05-1.07-5.15-2.97c-1.64-2.84-0.66-6.47,2.18-8.11c4.75-2.74,7.61-5.53,8.52-8.29
			c2.37-7.24-1.63-13.03-5.51-18.62c-1.42-2.05-2.76-3.99-3.75-5.97c-6.28-12.61-3.8-25.52,8.05-41.85
			c1.93-2.66,5.64-3.24,8.29-1.32c2.65,1.93,3.24,5.64,1.32,8.29c-11.37,15.67-9.94,23.75-7.03,29.58c0.61,1.22,1.71,2.82,2.89,4.51
			c4.47,6.46,11.23,16.23,7.02,29.08c-1.87,5.71-6.4,10.58-13.87,14.88C125.89,112.72,124.87,112.97,123.86,112.97z"/>
	</g>
	<g class="st5">
		<path class="st28" d="M166.91,112.97c-2.05,0-4.05-1.07-5.15-2.97c-1.64-2.84-0.67-6.47,2.18-8.11c4.75-2.74,7.61-5.53,8.51-8.29
			c2.37-7.24-1.63-13.03-5.51-18.63c-1.42-2.05-2.76-3.99-3.75-5.97c-6.28-12.61-3.8-25.52,8.05-41.85
			c1.93-2.65,5.64-3.24,8.29-1.32c2.65,1.93,3.24,5.64,1.32,8.29c-11.37,15.67-9.94,23.74-7.03,29.57c0.61,1.22,1.72,2.82,2.89,4.51
			c4.47,6.46,11.23,16.23,7.03,29.08c-1.87,5.71-6.4,10.58-13.87,14.88C168.94,112.72,167.92,112.97,166.91,112.97z"/>
	</g>
	<g class="st5">
		<circle class="st19" cx="131.53" cy="122.6" r="4.86"/>
		<circle class="st19" cx="171.5" cy="120.94" r="4.86"/>
		<circle class="st19" cx="92.88" cy="128.41" r="4.86"/>
		<circle class="st19" cx="106.31" cy="113.61" r="2.47"/>
		<circle class="st19" cx="151.81" cy="132.39" r="2.47"/>
		<circle class="st19" cx="186.15" cy="128" r="2.47"/>
		<circle class="st19" cx="150.93" cy="113.61" r="2.47"/>
		<circle class="st19" cx="117.31" cy="132.94" r="2.47"/>
		<circle class="st19" cx="69.98" cy="121.56" r="2.47"/>
	</g>
</g>
<g id="SOUP">
	<circle class="st30" cx="128.41" cy="128.41" r="126.59"/>
	<ellipse class="st31" cx="128.48" cy="195.46" rx="53.81" ry="20"/>
	<ellipse class="st32" cx="128.48" cy="116.61" rx="89.67" ry="35.07"/>
	<ellipse class="st33" cx="128.48" cy="128.3" rx="76.46" ry="30.02"/>
	<ellipse class="st34" cx="128.48" cy="137.68" rx="68.17" ry="30.02"/>
	<path class="st35" d="M128.48,137.83c-32.85,0-72.93-5.6-89.67-19.18c1.28,48.44,40.92,83.27,89.67,83.27s88.39-34.83,89.67-83.27
		C198.01,131.56,161.33,137.83,128.48,137.83z"/>
	<g>
		<defs>
			<path id="SVGID_13_" d="M128.48,137.83c-32.85,0-72.93-5.6-89.67-19.18c1.28,48.44,40.92,83.27,89.67,83.27
				s88.39-34.83,89.67-83.27C198.01,131.56,161.33,137.83,128.48,137.83z"/>
		</defs>
		<clipPath id="SVGID_14_">
			<use xlink:href="#SVGID_13_"  style="overflow:visible;"/>
		</clipPath>
		<g class="st36">
			<path class="st7" d="M128.48,145.61c-49.34,0-99.3-12.74-99.3-37.1c0-2.24,1.81-4.05,4.05-4.05c2.24,0,4.05,1.81,4.05,4.05
				c0,13.94,34.87,29,91.2,29c56.33,0,91.2-15.05,91.2-29c0-2.24,1.81-4.05,4.05-4.05s4.05,1.81,4.05,4.05
				C227.78,132.86,177.83,145.61,128.48,145.61z"/>
		</g>
	</g>
	<g>
		<path class="st28" d="M86.24,115.14c-1.75,0-3.45-0.91-4.39-2.53c-1.4-2.42-0.57-5.52,1.86-6.92c4.05-2.33,6.49-4.71,7.26-7.07
			c2.02-6.17-1.39-11.11-4.7-15.88c-1.21-1.75-2.35-3.4-3.2-5.09c-5.36-10.75-3.24-21.76,6.87-35.68c1.64-2.26,4.81-2.77,7.07-1.12
			c2.26,1.64,2.77,4.81,1.12,7.07c-9.7,13.36-8.47,20.25-6,25.22c0.52,1.04,1.46,2.4,2.46,3.85c3.81,5.51,9.58,13.84,5.99,24.79
			c-1.59,4.87-5.46,9.02-11.82,12.69C87.97,114.92,87.1,115.14,86.24,115.14z"/>
	</g>
	<g>
		<path class="st28" d="M124.54,115.14c-1.75,0-3.45-0.91-4.39-2.53c-1.4-2.42-0.57-5.52,1.86-6.92c4.05-2.33,6.49-4.71,7.26-7.07
			c2.02-6.17-1.39-11.11-4.69-15.88c-1.21-1.75-2.35-3.4-3.2-5.09c-5.36-10.75-3.24-21.76,6.87-35.68c1.64-2.26,4.81-2.77,7.07-1.12
			c2.26,1.64,2.76,4.81,1.12,7.07c-9.7,13.36-8.47,20.25-6,25.22c0.52,1.04,1.46,2.4,2.46,3.85c3.81,5.51,9.58,13.84,5.99,24.79
			c-1.59,4.87-5.46,9.02-11.82,12.69C126.27,114.92,125.4,115.14,124.54,115.14z"/>
	</g>
	<g>
		<path class="st28" d="M161.25,115.14c-1.75,0-3.45-0.91-4.39-2.53c-1.4-2.42-0.57-5.52,1.86-6.92c4.05-2.33,6.49-4.71,7.26-7.07
			c2.02-6.18-1.39-11.11-4.7-15.88c-1.21-1.75-2.35-3.4-3.19-5.09c-5.36-10.75-3.24-21.76,6.86-35.68c1.64-2.26,4.81-2.76,7.07-1.12
			c2.26,1.64,2.76,4.81,1.12,7.07c-9.7,13.36-8.47,20.24-6,25.22c0.52,1.04,1.46,2.4,2.46,3.85c3.81,5.51,9.57,13.84,5.99,24.79
			c-1.59,4.87-5.46,9.02-11.82,12.69C162.98,114.92,162.11,115.14,161.25,115.14z"/>
	</g>
	<g>
		<circle class="st26" cx="131.08" cy="123.34" r="4.14"/>
		<circle class="st26" cx="165.16" cy="121.93" r="4.14"/>
		<circle class="st26" cx="98.12" cy="128.3" r="4.14"/>
		<circle class="st26" cx="109.58" cy="115.68" r="2.1"/>
		<circle class="st26" cx="148.37" cy="131.69" r="2.1"/>
		<circle class="st26" cx="177.65" cy="127.95" r="2.1"/>
		<circle class="st26" cx="147.63" cy="115.68" r="2.1"/>
		<circle class="st26" cx="118.96" cy="132.16" r="2.1"/>
		<circle class="st26" cx="78.6" cy="122.46" r="2.1"/>
	</g>
</g>
</svg>
