<?xml version="1.0" encoding="utf-8"?>
<!-- Generator: Adobe Illustrator 23.0.3, SVG Export Plug-In . SVG Version: 6.00 Build 0)  -->
<svg version="1.1" id="Layer_1" xmlns="http://www.w3.org/2000/svg" xmlns:xlink="http://www.w3.org/1999/xlink" x="0px" y="0px"
	 viewBox="0 0 256 256" style="enable-background:new 0 0 256 256;" xml:space="preserve">
<style type="text/css">
	.st0{fill:#AEAFAF;}
	.st1{fill:#EAEAEA;}
	.st2{clip-path:url(#SVGID_2_);fill:#CE4236;}
	.st3{clip-path:url(#SVGID_2_);fill:none;stroke:#231F20;stroke-width:16;stroke-miterlimit:10;stroke-opacity:0.2;}
	.st4{fill:none;stroke:#FFFFFF;stroke-width:20;stroke-linecap:round;stroke-miterlimit:10;}
	.st5{fill:none;stroke:#CE4236;stroke-width:20;stroke-linecap:round;stroke-miterlimit:10;}
	.st6{fill:#EAAC2B;}
	.st7{fill:#9D9E9E;}
</style>
<ellipse class="st0" cx="126.78" cy="214.41" rx="61.57" ry="17.99"/>
<path class="st1" d="M73.11,33.54c-2.43,0-4.24,2.19-4.24,5.02c0,41.58,0.08,154.3,0.1,171.81c0,2.23,1.14,4.35,3.08,5.46
	c11.24,6.45,29.73,11.39,54.86,11.39s43.03-4.94,54.46-11.25c2.04-1.13,3.32-3.27,3.32-5.61V38.77c0.21-1.9-1.08-5.01-4.32-5.01
	c-0.88,0-25.58-0.62-53.46-0.62C98.99,33.14,73.99,33.54,73.11,33.54z"/>
<g>
	<defs>
		<path id="SVGID_1_" d="M73.11,33.54c-2.43,0-4.24,2.19-4.24,5.02c0,41.58,0.08,154.3,0.1,171.81c0,2.23,1.14,4.35,3.08,5.46
			c11.24,6.45,26.76,11.92,54.86,11.92s43.03-5.47,54.46-11.78c2.04-1.13,3.32-3.27,3.32-5.61V38.77c0.21-1.9-1.08-5.01-4.32-5.01
			c-0.88,0-25.58-0.62-53.46-0.62C98.99,33.14,73.99,33.54,73.11,33.54z"/>
	</defs>
	<clipPath id="SVGID_2_">
		<use xlink:href="#SVGID_1_"  style="overflow:visible;"/>
	</clipPath>
	<path class="st2" d="M197.8,126.26c0,0-37.21,12.1-70.9,12.1s-68.96-12.1-68.96-12.1V28.51H197.8V126.26z"/>
	<path class="st3" d="M68.86,39.27c0,0,26.13,11.5,58.29,11.5s57.53-11.35,57.53-11.35"/>
</g>
<path class="st4" d="M95.33,79.13c0,0,9.98,4.74,31.24,4.74s31.65-4.74,31.65-4.74"/>
<path class="st5" d="M95.33,191.93c0,0,9.98,4.74,31.24,4.74s31.65-4.74,31.65-4.74"/>
<circle class="st6" cx="126.78" cy="139.36" r="38.81"/>
<ellipse class="st0" cx="126.78" cy="31.95" rx="61.57" ry="17.99"/>
<path class="st7" d="M126.78,49.94c25.04,0,46.57-4.37,56.19-10.64c-0.02-9.93-25.17-17.98-56.19-17.98
	c-31.02,0-56.17,8.05-56.19,17.98C80.21,45.57,101.74,49.94,126.78,49.94z"/>
</svg>
