<?xml version="1.0" encoding="utf-8"?>
<!-- Generator: Adobe Illustrator 23.0.3, SVG Export Plug-In . SVG Version: 6.00 Build 0)  -->
<svg version="1.1" xmlns="http://www.w3.org/2000/svg" xmlns:xlink="http://www.w3.org/1999/xlink" x="0px" y="0px"
	 viewBox="0 0 256 256" style="enable-background:new 0 0 256 256;" xml:space="preserve">
<style type="text/css">
	.st0{display:none;}
	.st1{display:inline;fill:#22B0A6;}
	.st2{display:inline;fill:#DB9842;}
	.st3{display:inline;fill:#FAAA43;}
	.st4{display:inline;fill:#6ABFB9;}
	.st5{display:inline;}
	.st6{opacity:0.22;clip-path:url(#SVGID_2_);}
	.st7{fill:#FFFFFF;stroke:#FFFFFF;stroke-width:8;stroke-miterlimit:10;}
	.st8{display:inline;fill:#FAE6AB;}
	.st9{display:inline;opacity:0.54;}
	.st10{fill:#FBD76B;}
	.st11{fill:#4A9E48;}
	.st12{fill:#DB9842;}
	.st13{fill:#FAAA43;}
	.st14{fill:#6ABF68;}
	.st15{opacity:0.22;clip-path:url(#SVGID_4_);}
	.st16{opacity:0.54;}
	.st17{display:inline;fill:#D74F27;}
	.st18{display:inline;fill:#FBAF51;}
	.st19{display:inline;fill:#FEC551;}
	.st20{display:inline;fill:#E46C2C;}
	.st21{opacity:0.22;clip-path:url(#SVGID_6_);}
	.st22{fill:#FAE6AB;}
	.st23{fill:#FCB750;}
	.st24{display:inline;fill:#BA2E2C;}
	.st25{display:inline;fill:#CE3030;}
	.st26{display:inline;fill:#BCAE31;}
	.st27{display:inline;fill:#D1CA38;}
	.st28{display:inline;fill:#EF4136;}
	.st29{opacity:0.22;clip-path:url(#SVGID_8_);}
	.st30{fill:#E4D95D;}
	.st31{display:inline;fill:#4A9E48;}
	.st32{display:inline;fill:#6ABF68;}
	.st33{opacity:0.22;clip-path:url(#SVGID_10_);}
	.st34{opacity:0.22;clip-path:url(#SVGID_12_);}
	.st35{opacity:0.22;clip-path:url(#SVGID_14_);}
</style>
<g id="SOUPB_copy" class="st0">
	<ellipse class="st1" cx="128.48" cy="207.17" rx="63.11" ry="23.46"/>
	<ellipse class="st1" cx="128.48" cy="114.7" rx="105.16" ry="41.13"/>
	<ellipse class="st2" cx="128.48" cy="128.41" rx="89.67" ry="35.21"/>
	<ellipse class="st3" cx="128.48" cy="139.41" rx="79.95" ry="35.21"/>
	<path class="st4" d="M128.48,139.59c-38.52,0-85.53-6.57-105.16-22.5c1.5,56.81,47.99,97.66,105.16,97.66
		s103.66-40.85,105.16-97.66C210.02,132.23,167,139.59,128.48,139.59z"/>
	<g class="st5">
		<defs>
			<path id="SVGID_1_" d="M128.48,139.59c-38.52,0-85.53-6.57-105.16-22.5c1.5,56.81,47.99,97.66,105.16,97.66
				s103.66-40.85,105.16-97.66C210.02,132.23,167,139.59,128.48,139.59z"/>
		</defs>
		<clipPath id="SVGID_2_">
			<use xlink:href="#SVGID_1_"  style="overflow:visible;"/>
		</clipPath>
		<g class="st6">
			<path class="st7" d="M128,148.71c-57.87,0-116.46-14.94-116.46-43.51c0-2.62,2.13-4.75,4.75-4.75s4.75,2.13,4.75,4.75
				c0,16.35,40.89,34.01,106.95,34.01c66.06,0,106.95-17.65,106.95-34.01c0-2.62,2.13-4.75,4.75-4.75s4.75,2.13,4.75,4.75
				C244.45,133.76,185.87,148.71,128,148.71z"/>
		</g>
	</g>
	<g>
		<path class="st8" d="M78.94,112.97c-2.05,0-4.05-1.07-5.15-2.97c-1.64-2.84-0.66-6.47,2.18-8.11c4.75-2.74,7.61-5.53,8.51-8.29
			c2.37-7.24-1.63-13.03-5.51-18.63c-1.42-2.05-2.76-3.99-3.75-5.97c-6.28-12.61-3.8-25.52,8.05-41.85
			c1.93-2.66,5.64-3.24,8.29-1.32c2.65,1.93,3.24,5.64,1.32,8.29c-11.37,15.67-9.94,23.75-7.03,29.58c0.61,1.22,1.71,2.82,2.88,4.51
			c4.47,6.46,11.23,16.23,7.03,29.08c-1.87,5.71-6.4,10.58-13.87,14.88C80.97,112.72,79.95,112.97,78.94,112.97z"/>
	</g>
	<g>
		<path class="st8" d="M123.86,112.97c-2.05,0-4.05-1.07-5.15-2.97c-1.64-2.84-0.66-6.47,2.18-8.11c4.75-2.74,7.61-5.53,8.52-8.29
			c2.37-7.24-1.63-13.03-5.51-18.62c-1.42-2.05-2.76-3.99-3.75-5.97c-6.28-12.61-3.8-25.52,8.05-41.85
			c1.93-2.66,5.64-3.24,8.29-1.32c2.65,1.93,3.24,5.64,1.32,8.29c-11.37,15.67-9.94,23.75-7.03,29.58c0.61,1.22,1.71,2.82,2.89,4.51
			c4.47,6.46,11.23,16.23,7.02,29.08c-1.87,5.71-6.4,10.58-13.87,14.88C125.89,112.72,124.87,112.97,123.86,112.97z"/>
	</g>
	<g>
		<path class="st8" d="M166.91,112.97c-2.05,0-4.05-1.07-5.15-2.97c-1.64-2.84-0.67-6.47,2.18-8.11c4.75-2.74,7.61-5.53,8.51-8.29
			c2.37-7.24-1.63-13.03-5.51-18.63c-1.42-2.05-2.76-3.99-3.75-5.97c-6.28-12.61-3.8-25.52,8.05-41.85
			c1.93-2.65,5.64-3.24,8.29-1.32c2.65,1.93,3.24,5.64,1.32,8.29c-11.37,15.67-9.94,23.74-7.03,29.57c0.61,1.22,1.72,2.82,2.89,4.51
			c4.47,6.46,11.23,16.23,7.03,29.08c-1.87,5.71-6.4,10.58-13.87,14.88C168.94,112.72,167.92,112.97,166.91,112.97z"/>
	</g>
	<g class="st9">
		<circle class="st10" cx="131.53" cy="122.6" r="4.86"/>
		<circle class="st10" cx="171.5" cy="120.94" r="4.86"/>
		<circle class="st10" cx="92.88" cy="128.41" r="4.86"/>
		<circle class="st10" cx="106.31" cy="113.61" r="2.47"/>
		<circle class="st10" cx="151.81" cy="132.39" r="2.47"/>
		<circle class="st10" cx="186.15" cy="128" r="2.47"/>
		<circle class="st10" cx="150.93" cy="113.61" r="2.47"/>
		<circle class="st10" cx="117.31" cy="132.94" r="2.47"/>
		<circle class="st10" cx="69.98" cy="121.56" r="2.47"/>
	</g>
</g>
<g id="SOUPB_copy_2">
	<ellipse class="st11" cx="128.48" cy="207.17" rx="63.11" ry="23.46"/>
	<ellipse class="st11" cx="128.48" cy="114.7" rx="105.16" ry="41.13"/>
	<ellipse class="st12" cx="128.48" cy="128.41" rx="89.67" ry="35.21"/>
	<ellipse class="st13" cx="128.48" cy="139.41" rx="79.95" ry="35.21"/>
	<path class="st14" d="M128.48,139.59c-38.52,0-85.53-6.57-105.16-22.5c1.5,56.81,47.99,97.66,105.16,97.66
		s103.66-40.85,105.16-97.66C210.02,132.23,167,139.59,128.48,139.59z"/>
	<g>
		<defs>
			<path id="SVGID_3_" d="M128.48,139.59c-38.52,0-85.53-6.57-105.16-22.5c1.5,56.81,47.99,97.66,105.16,97.66
				s103.66-40.85,105.16-97.66C210.02,132.23,167,139.59,128.48,139.59z"/>
		</defs>
		<clipPath id="SVGID_4_">
			<use xlink:href="#SVGID_3_"  style="overflow:visible;"/>
		</clipPath>
		<g class="st15">
			<path class="st7" d="M128,148.71c-57.87,0-116.46-14.94-116.46-43.51c0-2.62,2.13-4.75,4.75-4.75s4.75,2.13,4.75,4.75
				c0,16.35,40.89,34.01,106.95,34.01c66.06,0,106.95-17.65,106.95-34.01c0-2.62,2.13-4.75,4.75-4.75s4.75,2.13,4.75,4.75
				C244.45,133.76,185.87,148.71,128,148.71z"/>
		</g>
	</g>
	<g class="st0">
		<path class="st8" d="M78.94,112.97c-2.05,0-4.05-1.07-5.15-2.97c-1.64-2.84-0.66-6.47,2.18-8.11c4.75-2.74,7.61-5.53,8.51-8.29
			c2.37-7.24-1.63-13.03-5.51-18.63c-1.42-2.05-2.76-3.99-3.75-5.97c-6.28-12.61-3.8-25.52,8.05-41.85
			c1.93-2.66,5.64-3.24,8.29-1.32c2.65,1.93,3.24,5.64,1.32,8.29c-11.37,15.67-9.94,23.75-7.03,29.58c0.61,1.22,1.71,2.82,2.88,4.51
			c4.47,6.46,11.23,16.23,7.03,29.08c-1.87,5.71-6.4,10.58-13.87,14.88C80.97,112.72,79.95,112.97,78.94,112.97z"/>
	</g>
	<g class="st0">
		<path class="st8" d="M123.86,112.97c-2.05,0-4.05-1.07-5.15-2.97c-1.64-2.84-0.66-6.47,2.18-8.11c4.75-2.74,7.61-5.53,8.52-8.29
			c2.37-7.24-1.63-13.03-5.51-18.62c-1.42-2.05-2.76-3.99-3.75-5.97c-6.28-12.61-3.8-25.52,8.05-41.85
			c1.93-2.66,5.64-3.24,8.29-1.32c2.65,1.93,3.24,5.64,1.32,8.29c-11.37,15.67-9.94,23.75-7.03,29.58c0.61,1.22,1.71,2.82,2.89,4.51
			c4.47,6.46,11.23,16.23,7.02,29.08c-1.87,5.71-6.4,10.58-13.87,14.88C125.89,112.72,124.87,112.97,123.86,112.97z"/>
	</g>
	<g class="st0">
		<path class="st8" d="M166.91,112.97c-2.05,0-4.05-1.07-5.15-2.97c-1.64-2.84-0.67-6.47,2.18-8.11c4.75-2.74,7.61-5.53,8.51-8.29
			c2.37-7.24-1.63-13.03-5.51-18.63c-1.42-2.05-2.76-3.99-3.75-5.97c-6.28-12.61-3.8-25.52,8.05-41.85
			c1.93-2.65,5.64-3.24,8.29-1.32c2.65,1.93,3.24,5.64,1.32,8.29c-11.37,15.67-9.94,23.74-7.03,29.57c0.61,1.22,1.72,2.82,2.89,4.51
			c4.47,6.46,11.23,16.23,7.03,29.08c-1.87,5.71-6.4,10.58-13.87,14.88C168.94,112.72,167.92,112.97,166.91,112.97z"/>
	</g>
	<g class="st16">
		<circle class="st10" cx="131.53" cy="122.6" r="4.86"/>
		<circle class="st10" cx="171.5" cy="120.94" r="4.86"/>
		<circle class="st10" cx="92.88" cy="128.41" r="4.86"/>
		<circle class="st10" cx="106.31" cy="113.61" r="2.47"/>
		<circle class="st10" cx="151.81" cy="132.39" r="2.47"/>
		<circle class="st10" cx="186.15" cy="128" r="2.47"/>
		<circle class="st10" cx="150.93" cy="113.61" r="2.47"/>
		<circle class="st10" cx="117.31" cy="132.94" r="2.47"/>
		<circle class="st10" cx="69.98" cy="121.56" r="2.47"/>
	</g>
</g>
<g id="SOUPS_copy" class="st0">
	<ellipse class="st17" cx="128.48" cy="207.17" rx="63.11" ry="23.46"/>
	<ellipse class="st17" cx="128.48" cy="114.7" rx="105.16" ry="41.13"/>
	<ellipse class="st18" cx="128.48" cy="128.41" rx="89.67" ry="35.21"/>
	<ellipse class="st19" cx="128.48" cy="139.41" rx="79.95" ry="35.21"/>
	<path class="st20" d="M128.48,139.59c-38.52,0-85.53-6.57-105.16-22.5c1.5,56.81,47.99,97.66,105.16,97.66
		s103.66-40.85,105.16-97.66C210.02,132.23,167,139.59,128.48,139.59z"/>
	<g class="st5">
		<defs>
			<path id="SVGID_5_" d="M128,139.59c-38.52,0-85.53-6.57-105.16-22.5c1.5,56.81,47.99,97.66,105.16,97.66
				s103.66-40.85,105.16-97.66C209.54,132.23,166.52,139.59,128,139.59z"/>
		</defs>
		<clipPath id="SVGID_6_">
			<use xlink:href="#SVGID_5_"  style="overflow:visible;"/>
		</clipPath>
		<g class="st21">
			<path class="st7" d="M128,148.71c-57.87,0-116.46-14.94-116.46-43.51c0-2.62,2.13-4.75,4.75-4.75s4.75,2.13,4.75,4.75
				c0,16.35,40.89,34.01,106.95,34.01c66.06,0,106.95-17.65,106.95-34.01c0-2.62,2.13-4.75,4.75-4.75s4.75,2.13,4.75,4.75
				C244.45,133.76,185.87,148.71,128,148.71z"/>
		</g>
	</g>
	<g class="st5">
		<path class="st22" d="M78.94,112.97c-2.05,0-4.05-1.07-5.15-2.97c-1.64-2.84-0.66-6.47,2.18-8.11c4.75-2.74,7.61-5.53,8.51-8.29
			c2.37-7.24-1.63-13.03-5.51-18.63c-1.42-2.05-2.76-3.99-3.75-5.97c-6.28-12.61-3.8-25.52,8.05-41.85
			c1.93-2.66,5.64-3.24,8.29-1.32c2.65,1.93,3.24,5.64,1.32,8.29c-11.37,15.67-9.94,23.75-7.03,29.58c0.61,1.22,1.71,2.82,2.88,4.51
			c4.47,6.46,11.23,16.23,7.03,29.08c-1.87,5.71-6.4,10.58-13.87,14.88C80.97,112.72,79.95,112.97,78.94,112.97z"/>
	</g>
	<g class="st5">
		<path class="st22" d="M123.86,112.97c-2.05,0-4.05-1.07-5.15-2.97c-1.64-2.84-0.66-6.47,2.18-8.11c4.75-2.74,7.61-5.53,8.52-8.29
			c2.37-7.24-1.63-13.03-5.51-18.62c-1.42-2.05-2.76-3.99-3.75-5.97c-6.28-12.61-3.8-25.52,8.05-41.85
			c1.93-2.66,5.64-3.24,8.29-1.32c2.65,1.93,3.24,5.64,1.32,8.29c-11.37,15.67-9.94,23.75-7.03,29.58c0.61,1.22,1.71,2.82,2.89,4.51
			c4.47,6.46,11.23,16.23,7.02,29.08c-1.87,5.71-6.4,10.58-13.87,14.88C125.89,112.72,124.87,112.97,123.86,112.97z"/>
	</g>
	<g class="st5">
		<path class="st22" d="M166.91,112.97c-2.05,0-4.05-1.07-5.15-2.97c-1.64-2.84-0.67-6.47,2.18-8.11c4.75-2.74,7.61-5.53,8.51-8.29
			c2.37-7.24-1.63-13.03-5.51-18.63c-1.42-2.05-2.76-3.99-3.75-5.97c-6.28-12.61-3.8-25.52,8.05-41.85
			c1.93-2.65,5.64-3.24,8.29-1.32c2.65,1.93,3.24,5.64,1.32,8.29c-11.37,15.67-9.94,23.74-7.03,29.57c0.61,1.22,1.72,2.82,2.89,4.51
			c4.47,6.46,11.23,16.23,7.03,29.08c-1.87,5.71-6.4,10.58-13.87,14.88C168.94,112.72,167.92,112.97,166.91,112.97z"/>
	</g>
	<g class="st5">
		<circle class="st23" cx="131.53" cy="122.6" r="4.86"/>
		<circle class="st23" cx="171.5" cy="120.94" r="4.86"/>
		<circle class="st23" cx="92.88" cy="128.41" r="4.86"/>
		<circle class="st23" cx="106.31" cy="113.61" r="2.47"/>
		<circle class="st23" cx="151.81" cy="132.39" r="2.47"/>
		<circle class="st23" cx="186.15" cy="128" r="2.47"/>
		<circle class="st23" cx="150.93" cy="113.61" r="2.47"/>
		<circle class="st23" cx="117.31" cy="132.94" r="2.47"/>
		<circle class="st23" cx="69.98" cy="121.56" r="2.47"/>
	</g>
</g>
<g id="SOUP_copy" class="st0">
	<ellipse class="st24" cx="128.48" cy="207.17" rx="63.11" ry="23.46"/>
	<ellipse class="st25" cx="128.48" cy="114.7" rx="105.16" ry="41.13"/>
	<ellipse class="st26" cx="128.48" cy="128.41" rx="89.67" ry="35.21"/>
	<ellipse class="st27" cx="128.48" cy="139.41" rx="79.95" ry="35.21"/>
	<path class="st28" d="M128.48,139.59c-38.52,0-85.53-6.57-105.16-22.5c1.5,56.81,47.99,97.66,105.16,97.66
		s103.66-40.85,105.16-97.66C210.02,132.23,167,139.59,128.48,139.59z"/>
	<g class="st5">
		<defs>
			<path id="SVGID_7_" d="M128.48,139.59c-38.52,0-85.53-6.57-105.16-22.5c1.5,56.81,47.99,97.66,105.16,97.66
				s103.66-40.85,105.16-97.66C210.02,132.23,167,139.59,128.48,139.59z"/>
		</defs>
		<clipPath id="SVGID_8_">
			<use xlink:href="#SVGID_7_"  style="overflow:visible;"/>
		</clipPath>
		<g class="st29">
			<path class="st7" d="M128.48,148.71c-57.87,0-116.46-14.94-116.46-43.51c0-2.62,2.13-4.75,4.75-4.75s4.75,2.13,4.75,4.75
				c0,16.35,40.89,34.01,106.95,34.01c66.06,0,106.95-17.65,106.95-34.01c0-2.62,2.13-4.75,4.75-4.75c2.62,0,4.75,2.13,4.75,4.75
				C244.94,133.76,186.35,148.71,128.48,148.71z"/>
		</g>
	</g>
	<g class="st5">
		<path class="st22" d="M78.94,112.97c-2.05,0-4.05-1.07-5.15-2.97c-1.64-2.84-0.66-6.47,2.18-8.11c4.75-2.74,7.61-5.53,8.51-8.29
			c2.37-7.24-1.63-13.03-5.51-18.63c-1.42-2.05-2.76-3.99-3.75-5.97c-6.28-12.61-3.8-25.52,8.05-41.85
			c1.93-2.66,5.64-3.24,8.29-1.32c2.65,1.93,3.24,5.64,1.32,8.29c-11.37,15.67-9.94,23.75-7.03,29.58c0.61,1.22,1.71,2.82,2.88,4.51
			c4.47,6.46,11.23,16.23,7.03,29.08c-1.87,5.71-6.4,10.58-13.87,14.88C80.97,112.72,79.95,112.97,78.94,112.97z"/>
	</g>
	<g class="st5">
		<path class="st22" d="M123.86,112.97c-2.05,0-4.05-1.07-5.15-2.97c-1.64-2.84-0.66-6.47,2.18-8.11c4.75-2.74,7.61-5.53,8.52-8.29
			c2.37-7.24-1.63-13.03-5.51-18.62c-1.42-2.05-2.76-3.99-3.75-5.97c-6.28-12.61-3.8-25.52,8.05-41.85
			c1.93-2.66,5.64-3.24,8.29-1.32c2.65,1.93,3.24,5.64,1.32,8.29c-11.37,15.67-9.94,23.75-7.03,29.58c0.61,1.22,1.71,2.82,2.89,4.51
			c4.47,6.46,11.23,16.23,7.02,29.08c-1.87,5.71-6.4,10.58-13.87,14.88C125.89,112.72,124.87,112.97,123.86,112.97z"/>
	</g>
	<g class="st5">
		<path class="st22" d="M166.91,112.97c-2.05,0-4.05-1.07-5.15-2.97c-1.64-2.84-0.67-6.47,2.18-8.11c4.75-2.74,7.61-5.53,8.51-8.29
			c2.37-7.24-1.63-13.03-5.51-18.63c-1.42-2.05-2.76-3.99-3.75-5.97c-6.28-12.61-3.8-25.52,8.05-41.85
			c1.93-2.65,5.64-3.24,8.29-1.32c2.65,1.93,3.24,5.64,1.32,8.29c-11.37,15.67-9.94,23.74-7.03,29.57c0.61,1.22,1.72,2.82,2.89,4.51
			c4.47,6.46,11.23,16.23,7.03,29.08c-1.87,5.71-6.4,10.58-13.87,14.88C168.94,112.72,167.92,112.97,166.91,112.97z"/>
	</g>
	<g class="st5">
		<circle class="st30" cx="131.53" cy="122.6" r="4.86"/>
		<circle class="st30" cx="171.5" cy="120.94" r="4.86"/>
		<circle class="st30" cx="92.88" cy="128.41" r="4.86"/>
		<circle class="st30" cx="106.31" cy="113.61" r="2.47"/>
		<circle class="st30" cx="151.81" cy="132.39" r="2.47"/>
		<circle class="st30" cx="186.15" cy="128" r="2.47"/>
		<circle class="st30" cx="150.93" cy="113.61" r="2.47"/>
		<circle class="st30" cx="117.31" cy="132.94" r="2.47"/>
		<circle class="st30" cx="69.98" cy="121.56" r="2.47"/>
	</g>
</g>
<g id="SOUPB" class="st0">
	<ellipse class="st31" cx="128.48" cy="207.17" rx="63.11" ry="23.46"/>
	<ellipse class="st31" cx="128.48" cy="114.7" rx="105.16" ry="41.13"/>
	<ellipse class="st2" cx="128.48" cy="128.41" rx="89.67" ry="35.21"/>
	<ellipse class="st3" cx="128.48" cy="139.41" rx="79.95" ry="35.21"/>
	<path class="st32" d="M128.48,139.59c-38.52,0-85.53-6.57-105.16-22.5c1.5,56.81,47.99,97.66,105.16,97.66
		s103.66-40.85,105.16-97.66C210.02,132.23,167,139.59,128.48,139.59z"/>
	<g class="st5">
		<defs>
			<path id="SVGID_9_" d="M128.48,139.59c-38.52,0-85.53-6.57-105.16-22.5c1.5,56.81,47.99,97.66,105.16,97.66
				s103.66-40.85,105.16-97.66C210.02,132.23,167,139.59,128.48,139.59z"/>
		</defs>
		<clipPath id="SVGID_10_">
			<use xlink:href="#SVGID_9_"  style="overflow:visible;"/>
		</clipPath>
		<g class="st33">
			<path class="st7" d="M128,148.71c-57.87,0-116.46-14.94-116.46-43.51c0-2.62,2.13-4.75,4.75-4.75s4.75,2.13,4.75,4.75
				c0,16.35,40.89,34.01,106.95,34.01c66.06,0,106.95-17.65,106.95-34.01c0-2.62,2.13-4.75,4.75-4.75s4.75,2.13,4.75,4.75
				C244.45,133.76,185.87,148.71,128,148.71z"/>
		</g>
	</g>
	<g class="st5">
		<path class="st22" d="M78.94,112.97c-2.05,0-4.05-1.07-5.15-2.97c-1.64-2.84-0.66-6.47,2.18-8.11c4.75-2.74,7.61-5.53,8.51-8.29
			c2.37-7.24-1.63-13.03-5.51-18.63c-1.42-2.05-2.76-3.99-3.75-5.97c-6.28-12.61-3.8-25.52,8.05-41.85
			c1.93-2.66,5.64-3.24,8.29-1.32c2.65,1.93,3.24,5.64,1.32,8.29c-11.37,15.67-9.94,23.75-7.03,29.58c0.61,1.22,1.71,2.82,2.88,4.51
			c4.47,6.46,11.23,16.23,7.03,29.08c-1.87,5.71-6.4,10.58-13.87,14.88C80.97,112.72,79.95,112.97,78.94,112.97z"/>
	</g>
	<g class="st5">
		<path class="st22" d="M123.86,112.97c-2.05,0-4.05-1.07-5.15-2.97c-1.64-2.84-0.66-6.47,2.18-8.11c4.75-2.74,7.61-5.53,8.52-8.29
			c2.37-7.24-1.63-13.03-5.51-18.62c-1.42-2.05-2.76-3.99-3.75-5.97c-6.28-12.61-3.8-25.52,8.05-41.85
			c1.93-2.66,5.64-3.24,8.29-1.32c2.65,1.93,3.24,5.64,1.32,8.29c-11.37,15.67-9.94,23.75-7.03,29.58c0.61,1.22,1.71,2.82,2.89,4.51
			c4.47,6.46,11.23,16.23,7.02,29.08c-1.87,5.71-6.4,10.58-13.87,14.88C125.89,112.72,124.87,112.97,123.86,112.97z"/>
	</g>
	<g class="st5">
		<path class="st22" d="M166.91,112.97c-2.05,0-4.05-1.07-5.15-2.97c-1.64-2.84-0.67-6.47,2.18-8.11c4.75-2.74,7.61-5.53,8.51-8.29
			c2.37-7.24-1.63-13.03-5.51-18.63c-1.42-2.05-2.76-3.99-3.75-5.97c-6.28-12.61-3.8-25.52,8.05-41.85
			c1.93-2.65,5.64-3.24,8.29-1.32c2.65,1.93,3.24,5.64,1.32,8.29c-11.37,15.67-9.94,23.74-7.03,29.57c0.61,1.22,1.72,2.82,2.89,4.51
			c4.47,6.46,11.23,16.23,7.03,29.08c-1.87,5.71-6.4,10.58-13.87,14.88C168.94,112.72,167.92,112.97,166.91,112.97z"/>
	</g>
	<g class="st9">
		<circle class="st10" cx="131.53" cy="122.6" r="4.86"/>
		<circle class="st10" cx="171.5" cy="120.94" r="4.86"/>
		<circle class="st10" cx="92.88" cy="128.41" r="4.86"/>
		<circle class="st10" cx="106.31" cy="113.61" r="2.47"/>
		<circle class="st10" cx="151.81" cy="132.39" r="2.47"/>
		<circle class="st10" cx="186.15" cy="128" r="2.47"/>
		<circle class="st10" cx="150.93" cy="113.61" r="2.47"/>
		<circle class="st10" cx="117.31" cy="132.94" r="2.47"/>
		<circle class="st10" cx="69.98" cy="121.56" r="2.47"/>
	</g>
</g>
<g id="SOUPS" class="st0">
	<ellipse class="st17" cx="128.48" cy="207.17" rx="63.11" ry="23.46"/>
	<ellipse class="st17" cx="128.48" cy="114.7" rx="105.16" ry="41.13"/>
	<ellipse class="st18" cx="128.48" cy="128.41" rx="89.67" ry="35.21"/>
	<ellipse class="st19" cx="128.48" cy="139.41" rx="79.95" ry="35.21"/>
	<path class="st20" d="M128.48,139.59c-38.52,0-85.53-6.57-105.16-22.5c1.5,56.81,47.99,97.66,105.16,97.66
		s103.66-40.85,105.16-97.66C210.02,132.23,167,139.59,128.48,139.59z"/>
	<g class="st5">
		<defs>
			<path id="SVGID_11_" d="M128,139.59c-38.52,0-85.53-6.57-105.16-22.5c1.5,56.81,47.99,97.66,105.16,97.66
				s103.66-40.85,105.16-97.66C209.54,132.23,166.52,139.59,128,139.59z"/>
		</defs>
		<clipPath id="SVGID_12_">
			<use xlink:href="#SVGID_11_"  style="overflow:visible;"/>
		</clipPath>
		<g class="st34">
			<path class="st7" d="M128,148.71c-57.87,0-116.46-14.94-116.46-43.51c0-2.62,2.13-4.75,4.75-4.75s4.75,2.13,4.75,4.75
				c0,16.35,40.89,34.01,106.95,34.01c66.06,0,106.95-17.65,106.95-34.01c0-2.62,2.13-4.75,4.75-4.75s4.75,2.13,4.75,4.75
				C244.45,133.76,185.87,148.71,128,148.71z"/>
		</g>
	</g>
	<g class="st5">
		<path class="st22" d="M78.94,112.97c-2.05,0-4.05-1.07-5.15-2.97c-1.64-2.84-0.66-6.47,2.18-8.11c4.75-2.74,7.61-5.53,8.51-8.29
			c2.37-7.24-1.63-13.03-5.51-18.63c-1.42-2.05-2.76-3.99-3.75-5.97c-6.28-12.61-3.8-25.52,8.05-41.85
			c1.93-2.66,5.64-3.24,8.29-1.32c2.65,1.93,3.24,5.64,1.32,8.29c-11.37,15.67-9.94,23.75-7.03,29.58c0.61,1.22,1.71,2.82,2.88,4.51
			c4.47,6.46,11.23,16.23,7.03,29.08c-1.87,5.71-6.4,10.58-13.87,14.88C80.97,112.72,79.95,112.97,78.94,112.97z"/>
	</g>
	<g class="st5">
		<path class="st22" d="M123.86,112.97c-2.05,0-4.05-1.07-5.15-2.97c-1.64-2.84-0.66-6.47,2.18-8.11c4.75-2.74,7.61-5.53,8.52-8.29
			c2.37-7.24-1.63-13.03-5.51-18.62c-1.42-2.05-2.76-3.99-3.75-5.97c-6.28-12.61-3.8-25.52,8.05-41.85
			c1.93-2.66,5.64-3.24,8.29-1.32c2.65,1.93,3.24,5.64,1.32,8.29c-11.37,15.67-9.94,23.75-7.03,29.58c0.61,1.22,1.71,2.82,2.89,4.51
			c4.47,6.46,11.23,16.23,7.02,29.08c-1.87,5.71-6.4,10.58-13.87,14.88C125.89,112.72,124.87,112.97,123.86,112.97z"/>
	</g>
	<g class="st5">
		<path class="st22" d="M166.91,112.97c-2.05,0-4.05-1.07-5.15-2.97c-1.64-2.84-0.67-6.47,2.18-8.11c4.75-2.74,7.61-5.53,8.51-8.29
			c2.37-7.24-1.63-13.03-5.51-18.63c-1.42-2.05-2.76-3.99-3.75-5.97c-6.28-12.61-3.8-25.52,8.05-41.85
			c1.93-2.65,5.64-3.24,8.29-1.32c2.65,1.93,3.24,5.64,1.32,8.29c-11.37,15.67-9.94,23.74-7.03,29.57c0.61,1.22,1.72,2.82,2.89,4.51
			c4.47,6.46,11.23,16.23,7.03,29.08c-1.87,5.71-6.4,10.58-13.87,14.88C168.94,112.72,167.92,112.97,166.91,112.97z"/>
	</g>
	<g class="st5">
		<circle class="st23" cx="131.53" cy="122.6" r="4.86"/>
		<circle class="st23" cx="171.5" cy="120.94" r="4.86"/>
		<circle class="st23" cx="92.88" cy="128.41" r="4.86"/>
		<circle class="st23" cx="106.31" cy="113.61" r="2.47"/>
		<circle class="st23" cx="151.81" cy="132.39" r="2.47"/>
		<circle class="st23" cx="186.15" cy="128" r="2.47"/>
		<circle class="st23" cx="150.93" cy="113.61" r="2.47"/>
		<circle class="st23" cx="117.31" cy="132.94" r="2.47"/>
		<circle class="st23" cx="69.98" cy="121.56" r="2.47"/>
	</g>
</g>
<g id="SOUP" class="st0">
	<ellipse class="st24" cx="128.48" cy="207.17" rx="63.11" ry="23.46"/>
	<ellipse class="st25" cx="128.48" cy="114.7" rx="105.16" ry="41.13"/>
	<ellipse class="st26" cx="128.48" cy="128.41" rx="89.67" ry="35.21"/>
	<ellipse class="st27" cx="128.48" cy="139.41" rx="79.95" ry="35.21"/>
	<path class="st28" d="M128.48,139.59c-38.52,0-85.53-6.57-105.16-22.5c1.5,56.81,47.99,97.66,105.16,97.66
		s103.66-40.85,105.16-97.66C210.02,132.23,167,139.59,128.48,139.59z"/>
	<g class="st5">
		<defs>
			<path id="SVGID_13_" d="M128.48,139.59c-38.52,0-85.53-6.57-105.16-22.5c1.5,56.81,47.99,97.66,105.16,97.66
				s103.66-40.85,105.16-97.66C210.02,132.23,167,139.59,128.48,139.59z"/>
		</defs>
		<clipPath id="SVGID_14_">
			<use xlink:href="#SVGID_13_"  style="overflow:visible;"/>
		</clipPath>
		<g class="st35">
			<path class="st7" d="M128.48,148.71c-57.87,0-116.46-14.94-116.46-43.51c0-2.62,2.13-4.75,4.75-4.75s4.75,2.13,4.75,4.75
				c0,16.35,40.89,34.01,106.95,34.01c66.06,0,106.95-17.65,106.95-34.01c0-2.62,2.13-4.75,4.75-4.75c2.62,0,4.75,2.13,4.75,4.75
				C244.94,133.76,186.35,148.71,128.48,148.71z"/>
		</g>
	</g>
	<g class="st5">
		<path class="st22" d="M78.94,112.97c-2.05,0-4.05-1.07-5.15-2.97c-1.64-2.84-0.66-6.47,2.18-8.11c4.75-2.74,7.61-5.53,8.51-8.29
			c2.37-7.24-1.63-13.03-5.51-18.63c-1.42-2.05-2.76-3.99-3.75-5.97c-6.28-12.61-3.8-25.52,8.05-41.85
			c1.93-2.66,5.64-3.24,8.29-1.32c2.65,1.93,3.24,5.64,1.32,8.29c-11.37,15.67-9.94,23.75-7.03,29.58c0.61,1.22,1.71,2.82,2.88,4.51
			c4.47,6.46,11.23,16.23,7.03,29.08c-1.87,5.71-6.4,10.58-13.87,14.88C80.97,112.72,79.95,112.97,78.94,112.97z"/>
	</g>
	<g class="st5">
		<path class="st22" d="M123.86,112.97c-2.05,0-4.05-1.07-5.15-2.97c-1.64-2.84-0.66-6.47,2.18-8.11c4.75-2.74,7.61-5.53,8.52-8.29
			c2.37-7.24-1.63-13.03-5.51-18.62c-1.42-2.05-2.76-3.99-3.75-5.97c-6.28-12.61-3.8-25.52,8.05-41.85
			c1.93-2.66,5.64-3.24,8.29-1.32c2.65,1.93,3.24,5.64,1.32,8.29c-11.37,15.67-9.94,23.75-7.03,29.58c0.61,1.22,1.71,2.82,2.89,4.51
			c4.47,6.46,11.23,16.23,7.02,29.08c-1.87,5.71-6.4,10.58-13.87,14.88C125.89,112.72,124.87,112.97,123.86,112.97z"/>
	</g>
	<g class="st5">
		<path class="st22" d="M166.91,112.97c-2.05,0-4.05-1.07-5.15-2.97c-1.64-2.84-0.67-6.47,2.18-8.11c4.75-2.74,7.61-5.53,8.51-8.29
			c2.37-7.24-1.63-13.03-5.51-18.63c-1.42-2.05-2.76-3.99-3.75-5.97c-6.28-12.61-3.8-25.52,8.05-41.85
			c1.93-2.65,5.64-3.24,8.29-1.32c2.65,1.93,3.24,5.64,1.32,8.29c-11.37,15.67-9.94,23.74-7.03,29.57c0.61,1.22,1.72,2.82,2.89,4.51
			c4.47,6.46,11.23,16.23,7.03,29.08c-1.87,5.71-6.4,10.58-13.87,14.88C168.94,112.72,167.92,112.97,166.91,112.97z"/>
	</g>
	<g class="st5">
		<circle class="st30" cx="131.53" cy="122.6" r="4.86"/>
		<circle class="st30" cx="171.5" cy="120.94" r="4.86"/>
		<circle class="st30" cx="92.88" cy="128.41" r="4.86"/>
		<circle class="st30" cx="106.31" cy="113.61" r="2.47"/>
		<circle class="st30" cx="151.81" cy="132.39" r="2.47"/>
		<circle class="st30" cx="186.15" cy="128" r="2.47"/>
		<circle class="st30" cx="150.93" cy="113.61" r="2.47"/>
		<circle class="st30" cx="117.31" cy="132.94" r="2.47"/>
		<circle class="st30" cx="69.98" cy="121.56" r="2.47"/>
	</g>
</g>
</svg>
