<?xml version="1.0" encoding="utf-8"?>
<!-- Generator: Adobe Illustrator 23.0.3, SVG Export Plug-In . SVG Version: 6.00 Build 0)  -->
<svg version="1.1" xmlns="http://www.w3.org/2000/svg" xmlns:xlink="http://www.w3.org/1999/xlink" x="0px" y="0px"
	 viewBox="0 0 256 256" style="enable-background:new 0 0 256 256;" xml:space="preserve">
<style type="text/css">
	.st0{opacity:0.2;fill:#BFBEBD;}
	.st1{fill:#C99E47;}
	.st2{fill:#FEC551;}
	.st3{opacity:0.8;clip-path:url(#SVGID_2_);fill:#FFCF45;}
	.st4{clip-path:url(#SVGID_2_);fill:none;}
	.st5{fill:none;stroke:#C99E47;stroke-width:7;stroke-linecap:round;stroke-miterlimit:10;stroke-dasharray:12;}
	.st6{display:none;}
	.st7{display:inline;fill:#99948F;}
	.st8{display:inline;fill:#7D7976;}
	.st9{display:inline;}
	.st10{opacity:0.2;clip-path:url(#SVGID_4_);fill:#FFD645;}
	.st11{opacity:0.75;fill:#FEF9FB;}
	.st12{display:inline;fill:#22B0A6;}
	.st13{display:inline;fill:#DB9842;}
	.st14{display:inline;fill:#FAAA43;}
	.st15{display:inline;fill:#6ABFB9;}
	.st16{opacity:0.22;clip-path:url(#SVGID_6_);}
	.st17{fill:#FFFFFF;stroke:#FFFFFF;stroke-width:8;stroke-miterlimit:10;}
	.st18{display:inline;fill:#FAE6AB;}
	.st19{display:inline;opacity:0.54;}
	.st20{fill:#FBD76B;}
	.st21{display:inline;fill:#4A9E48;}
	.st22{display:inline;fill:#6ABF68;}
	.st23{opacity:0.22;clip-path:url(#SVGID_8_);}
	.st24{display:inline;fill:#D74F27;}
	.st25{display:inline;fill:#FBAF51;}
	.st26{display:inline;fill:#FEC551;}
	.st27{display:inline;fill:#E46C2C;}
	.st28{opacity:0.22;clip-path:url(#SVGID_10_);}
	.st29{fill:#FCB750;}
	.st30{display:inline;fill:#BA2E2C;}
	.st31{display:inline;fill:#CE3030;}
	.st32{display:inline;fill:#BCAE31;}
	.st33{display:inline;fill:#D1CA38;}
	.st34{display:inline;fill:#EF4136;}
	.st35{opacity:0.22;clip-path:url(#SVGID_12_);}
	.st36{fill:#E4D95D;}
	.st37{opacity:0.22;clip-path:url(#SVGID_14_);}
	.st38{fill:#FAE6AB;}
	.st39{opacity:0.22;clip-path:url(#SVGID_16_);}
	.st40{display:inline;opacity:0.2;fill:#BFBEBD;}
	.st41{opacity:0.22;clip-path:url(#SVGID_18_);}
</style>
<g id="SOUP_copy_2">
	<circle class="st0" cx="129.32" cy="131.09" r="126.59"/>
	<g>
		<path class="st1" d="M219.08,92.36c-1.29-1.29-3.32-1.41-4.77-0.3c-10.93,8.38-26.65,7.57-36.66-2.43
			c-10.01-10.01-10.81-25.72-2.43-36.66c1.11-1.45-3.02-13.48-4.3-14.77l-8.46-2.46c-1.54-1.54-4.07-1.38-5.41,0.32
			c-15.52,19.65-33.75,40.68-55,62.15c-23.27,23.5-51.1,35.4-72.26,52.12c-1.73,1.36,3.14,11.93,4.72,13.46
			c4.34,4.2,9.9,9.38,12.96,12.22c1.26,1.17,3.15,1.28,4.56,0.29c10.12-7.07,27.06-8.26,37.14,1.82
			c10.33,10.33,7.5,14.58-2.32,29.08c-0.96,1.42,3.17,11.3,4.34,12.54c3.29,3.5,9.67,10.19,13.03,13.71
			c1.26,1.32,3.29,1.5,4.76,0.42c22.36-16.42,47.37-37.27,72.7-63.39c20.29-20.93,37.11-41.44,50.93-60.26
			c1.06-1.44-2.36-13.26-3.62-14.52L219.08,92.36z"/>
		<path class="st2" d="M215.3,81.87c-1.29-1.29-3.32-1.41-4.77-0.3c-10.94,8.38-26.65,7.57-36.66-2.43
			c-10.01-10.01-10.81-25.72-2.43-36.66c1.11-1.45,0.98-3.48-0.3-4.77l-12.46-12.46c-1.54-1.54-4.07-1.38-5.41,0.32
			c-15.52,19.65-33.75,40.68-55,62.15c-23.27,23.5-46.1,43.4-67.26,60.12c-1.73,1.36-1.86,3.93-0.28,5.46
			c4.34,4.2,9.9,9.38,12.96,12.22c1.26,1.17,3.15,1.28,4.56,0.29c10.12-7.07,27.06-8.26,37.14,1.82
			c10.33,10.33,11.5,22.58,1.68,37.08c-0.96,1.42-0.83,3.3,0.34,4.54c3.29,3.5,9.67,10.19,13.03,13.71c1.26,1.32,3.29,1.5,4.76,0.42
			c22.36-16.42,47.37-37.27,72.7-63.39c20.29-20.93,37.11-41.44,50.93-60.26c1.06-1.44,0.9-3.44-0.37-4.7L215.3,81.87z"/>
		<g>
			<defs>
				<path id="SVGID_1_" d="M214.84,81.76c-1.29-1.29-3.32-1.41-4.77-0.3c-10.94,8.38-26.65,7.57-36.66-2.43
					c-10.01-10.01-10.81-25.72-2.43-36.66c1.11-1.45,0.98-3.48-0.3-4.77l-12.46-12.46c-1.54-1.54-4.07-1.38-5.41,0.32
					c-15.52,19.65-33.75,40.68-55,62.15c-23.27,23.5-46.1,43.4-67.26,60.12c-1.73,1.36-1.86,3.93-0.28,5.46
					c4.34,4.2,9.9,9.38,12.96,12.22c1.26,1.17,3.15,1.28,4.56,0.29c10.12-7.07,27.06-8.26,37.14,1.82
					c10.33,10.33,11.5,22.58,1.68,37.08c-0.96,1.42-0.83,3.3,0.34,4.54c3.29,3.5,9.67,10.19,13.03,13.71
					c1.26,1.32,3.29,1.5,4.76,0.42c22.36-16.42,47.37-37.27,72.7-63.39c20.29-20.93,37.11-41.44,50.93-60.26
					c1.06-1.44,0.9-3.44-0.37-4.7L214.84,81.76z"/>
			</defs>
			<clipPath id="SVGID_2_">
				<use xlink:href="#SVGID_1_"  style="overflow:visible;"/>
			</clipPath>
			<path class="st3" d="M228.89,94.92l-13.16-13.16c-1.29-1.29-3.32-1.41-4.77-0.3c-10.94,8.38-26.65,7.57-36.66-2.43
				c-10.01-10.01-10.81-25.72-2.43-36.66c1.11-1.45,0.98-3.48-0.3-4.77L159.1,25.13c-1.54-1.54-4.07-1.38-5.41,0.32
				c-15.52,19.65-33.75,40.68-55,62.15c-23.27,23.5-46.1,43.4-67.26,60.12c-1.73,1.36-1.86,3.93-0.28,5.46
				c4.34,4.2,9.9,9.38,12.96,12.22c1.26,1.17,3.15,1.28,4.56,0.29"/>
			<path class="st4" d="M102.63,219.84c-3.33-3.5-9.3-9.76-12.57-13.23c13.13-19.59,6-33.61-2.32-41.93
				c-5.49-5.49-13.22-8.51-21.76-8.51c-7.25,0-14.63,2.22-20.28,6.09c-2.78-2.58-8.14-7.58-12.37-11.66
				c23.54-18.61,46.18-38.86,67.29-60.18c19.41-19.6,37.93-40.51,55.04-62.16l11.93,11.93c-9.47,12.62-8.21,30.47,2.98,41.66
				c6.02,6.02,14.03,9.34,22.54,9.34c6.87,0,13.65-2.26,19.12-6.36l12.69,12.7c-15.37,20.91-32.32,40.96-50.38,59.58
				C152.45,179.89,128.25,201,102.63,219.84z"/>
		</g>
		<path class="st5" d="M61.89,128.93c22.91,22.91,45.81,45.81,68.72,68.72"/>
	</g>
	<g class="st6">
		<path class="st7" d="M138.43,129.12l44.44,1.95c3.95,0.14,7.23-3.03,7.23-6.98v0c0-3.96-3.28-7.12-7.23-6.98l-44.44,1.95
			c-1.87,0.07-7.76,1.5-11.8-1.86c-6.46-5.36-16.32-9.72-23.81-9.72c-10.22,0-18.51,7.44-18.51,16.62c0,9.18,8.29,16.62,18.51,16.62
			c7.48,0,17.54-4.15,23.81-9.72C129.85,128.12,136.55,129.05,138.43,129.12z"/>
		<path class="st8" d="M101.19,135.48c6.29,0,22.57-5.1,22.57-11.39s-16.27-11.39-22.57-11.39s-11.39,5.1-11.39,11.39
			S94.89,135.48,101.19,135.48z"/>
		<g class="st9">
			<defs>
				<path id="SVGID_3_" d="M138.43,129.12l44.44,1.95c3.95,0.14,7.23-3.03,7.23-6.98v0c0-3.96-3.28-7.12-7.23-6.98l-44.44,1.95
					c-1.87,0.07-7.76,1.5-11.8-1.86c-6.46-5.36-16.32-9.72-23.81-9.72c-10.22,0-18.51,7.44-18.51,16.62
					c0,9.18,8.29,16.62,18.51,16.62c7.48,0,17.54-4.15,23.81-9.72C129.85,128.12,136.55,129.05,138.43,129.12z"/>
			</defs>
			<clipPath id="SVGID_4_">
				<use xlink:href="#SVGID_3_"  style="overflow:visible;"/>
			</clipPath>
			<path class="st10" d="M224.89,95.92l-13.16-13.16c-1.29-1.29-3.32-1.41-4.77-0.3c-10.94,8.38-26.65,7.57-36.66-2.43
				c-10.01-10.01-10.81-25.72-2.43-36.66c1.11-1.45,0.98-3.48-0.3-4.77L155.1,26.13c-1.54-1.54-4.07-1.38-5.41,0.32
				c-15.52,19.65-33.75,40.68-55,62.15c-23.27,23.5-46.1,43.4-67.26,60.12c-1.73,1.36-1.86,3.93-0.28,5.46
				c4.34,4.2,9.9,9.38,12.96,12.22c1.26,1.17,3.15,1.28,4.56,0.29"/>
		</g>
	</g>
	<circle class="st11" cx="136.17" cy="126.09" r="32.69"/>
</g>
<g id="SOUPB_copy" class="st6">
	<ellipse class="st12" cx="128.48" cy="207.17" rx="63.11" ry="23.46"/>
	<ellipse class="st12" cx="128.48" cy="114.7" rx="105.16" ry="41.13"/>
	<ellipse class="st13" cx="128.48" cy="128.41" rx="89.67" ry="35.21"/>
	<ellipse class="st14" cx="128.48" cy="139.41" rx="79.95" ry="35.21"/>
	<path class="st15" d="M128.48,139.59c-38.52,0-85.53-6.57-105.16-22.5c1.5,56.81,47.99,97.66,105.16,97.66
		s103.66-40.85,105.16-97.66C210.02,132.23,167,139.59,128.48,139.59z"/>
	<g class="st9">
		<defs>
			<path id="SVGID_5_" d="M128.48,139.59c-38.52,0-85.53-6.57-105.16-22.5c1.5,56.81,47.99,97.66,105.16,97.66
				s103.66-40.85,105.16-97.66C210.02,132.23,167,139.59,128.48,139.59z"/>
		</defs>
		<clipPath id="SVGID_6_">
			<use xlink:href="#SVGID_5_"  style="overflow:visible;"/>
		</clipPath>
		<g class="st16">
			<path class="st17" d="M128,148.71c-57.87,0-116.46-14.94-116.46-43.51c0-2.62,2.13-4.75,4.75-4.75s4.75,2.13,4.75,4.75
				c0,16.35,40.89,34.01,106.95,34.01c66.06,0,106.95-17.65,106.95-34.01c0-2.62,2.13-4.75,4.75-4.75s4.75,2.13,4.75,4.75
				C244.45,133.76,185.87,148.71,128,148.71z"/>
		</g>
	</g>
	<g>
		<path class="st18" d="M78.94,112.97c-2.05,0-4.05-1.07-5.15-2.97c-1.64-2.84-0.66-6.47,2.18-8.11c4.75-2.74,7.61-5.53,8.51-8.29
			c2.37-7.24-1.63-13.03-5.51-18.63c-1.42-2.05-2.76-3.99-3.75-5.97c-6.28-12.61-3.8-25.52,8.05-41.85
			c1.93-2.66,5.64-3.24,8.29-1.32c2.65,1.93,3.24,5.64,1.32,8.29c-11.37,15.67-9.94,23.75-7.03,29.58c0.61,1.22,1.71,2.82,2.88,4.51
			c4.47,6.46,11.23,16.23,7.03,29.08c-1.87,5.71-6.4,10.58-13.87,14.88C80.97,112.72,79.95,112.97,78.94,112.97z"/>
	</g>
	<g>
		<path class="st18" d="M123.86,112.97c-2.05,0-4.05-1.07-5.15-2.97c-1.64-2.84-0.66-6.47,2.18-8.11c4.75-2.74,7.61-5.53,8.52-8.29
			c2.37-7.24-1.63-13.03-5.51-18.62c-1.42-2.05-2.76-3.99-3.75-5.97c-6.28-12.61-3.8-25.52,8.05-41.85
			c1.93-2.66,5.64-3.24,8.29-1.32c2.65,1.93,3.24,5.64,1.32,8.29c-11.37,15.67-9.94,23.75-7.03,29.58c0.61,1.22,1.71,2.82,2.89,4.51
			c4.47,6.46,11.23,16.23,7.02,29.08c-1.87,5.71-6.4,10.58-13.87,14.88C125.89,112.72,124.87,112.97,123.86,112.97z"/>
	</g>
	<g>
		<path class="st18" d="M166.91,112.97c-2.05,0-4.05-1.07-5.15-2.97c-1.64-2.84-0.67-6.47,2.18-8.11c4.75-2.74,7.61-5.53,8.51-8.29
			c2.37-7.24-1.63-13.03-5.51-18.63c-1.42-2.05-2.76-3.99-3.75-5.97c-6.28-12.61-3.8-25.52,8.05-41.85
			c1.93-2.65,5.64-3.24,8.29-1.32c2.65,1.93,3.24,5.64,1.32,8.29c-11.37,15.67-9.94,23.74-7.03,29.57c0.61,1.22,1.72,2.82,2.89,4.51
			c4.47,6.46,11.23,16.23,7.03,29.08c-1.87,5.71-6.4,10.58-13.87,14.88C168.94,112.72,167.92,112.97,166.91,112.97z"/>
	</g>
	<g class="st19">
		<circle class="st20" cx="131.53" cy="122.6" r="4.86"/>
		<circle class="st20" cx="171.5" cy="120.94" r="4.86"/>
		<circle class="st20" cx="92.88" cy="128.41" r="4.86"/>
		<circle class="st20" cx="106.31" cy="113.61" r="2.47"/>
		<circle class="st20" cx="151.81" cy="132.39" r="2.47"/>
		<circle class="st20" cx="186.15" cy="128" r="2.47"/>
		<circle class="st20" cx="150.93" cy="113.61" r="2.47"/>
		<circle class="st20" cx="117.31" cy="132.94" r="2.47"/>
		<circle class="st20" cx="69.98" cy="121.56" r="2.47"/>
	</g>
</g>
<g id="SOUPB_copy_2" class="st6">
	<ellipse class="st21" cx="128.48" cy="207.17" rx="63.11" ry="23.46"/>
	<ellipse class="st21" cx="128.48" cy="114.7" rx="105.16" ry="41.13"/>
	<ellipse class="st13" cx="128.48" cy="128.41" rx="89.67" ry="35.21"/>
	<ellipse class="st14" cx="128.48" cy="139.41" rx="79.95" ry="35.21"/>
	<path class="st22" d="M128.48,139.59c-38.52,0-85.53-6.57-105.16-22.5c1.5,56.81,47.99,97.66,105.16,97.66
		s103.66-40.85,105.16-97.66C210.02,132.23,167,139.59,128.48,139.59z"/>
	<g class="st9">
		<defs>
			<path id="SVGID_7_" d="M128.48,139.59c-38.52,0-85.53-6.57-105.16-22.5c1.5,56.81,47.99,97.66,105.16,97.66
				s103.66-40.85,105.16-97.66C210.02,132.23,167,139.59,128.48,139.59z"/>
		</defs>
		<clipPath id="SVGID_8_">
			<use xlink:href="#SVGID_7_"  style="overflow:visible;"/>
		</clipPath>
		<g class="st23">
			<path class="st17" d="M128,148.71c-57.87,0-116.46-14.94-116.46-43.51c0-2.62,2.13-4.75,4.75-4.75s4.75,2.13,4.75,4.75
				c0,16.35,40.89,34.01,106.95,34.01c66.06,0,106.95-17.65,106.95-34.01c0-2.62,2.13-4.75,4.75-4.75s4.75,2.13,4.75,4.75
				C244.45,133.76,185.87,148.71,128,148.71z"/>
		</g>
	</g>
	<g>
		<path class="st18" d="M78.94,112.97c-2.05,0-4.05-1.07-5.15-2.97c-1.64-2.84-0.66-6.47,2.18-8.11c4.75-2.74,7.61-5.53,8.51-8.29
			c2.37-7.24-1.63-13.03-5.51-18.63c-1.42-2.05-2.76-3.99-3.75-5.97c-6.28-12.61-3.8-25.52,8.05-41.85
			c1.93-2.66,5.64-3.24,8.29-1.32c2.65,1.93,3.24,5.64,1.32,8.29c-11.37,15.67-9.94,23.75-7.03,29.58c0.61,1.22,1.71,2.82,2.88,4.51
			c4.47,6.46,11.23,16.23,7.03,29.08c-1.87,5.71-6.4,10.58-13.87,14.88C80.97,112.72,79.95,112.97,78.94,112.97z"/>
	</g>
	<g>
		<path class="st18" d="M123.86,112.97c-2.05,0-4.05-1.07-5.15-2.97c-1.64-2.84-0.66-6.47,2.18-8.11c4.75-2.74,7.61-5.53,8.52-8.29
			c2.37-7.24-1.63-13.03-5.51-18.62c-1.42-2.05-2.76-3.99-3.75-5.97c-6.28-12.61-3.8-25.52,8.05-41.85
			c1.93-2.66,5.64-3.24,8.29-1.32c2.65,1.93,3.24,5.64,1.32,8.29c-11.37,15.67-9.94,23.75-7.03,29.58c0.61,1.22,1.71,2.82,2.89,4.51
			c4.47,6.46,11.23,16.23,7.02,29.08c-1.87,5.71-6.4,10.58-13.87,14.88C125.89,112.72,124.87,112.97,123.86,112.97z"/>
	</g>
	<g>
		<path class="st18" d="M166.91,112.97c-2.05,0-4.05-1.07-5.15-2.97c-1.64-2.84-0.67-6.47,2.18-8.11c4.75-2.74,7.61-5.53,8.51-8.29
			c2.37-7.24-1.63-13.03-5.51-18.63c-1.42-2.05-2.76-3.99-3.75-5.97c-6.28-12.61-3.8-25.52,8.05-41.85
			c1.93-2.65,5.64-3.24,8.29-1.32c2.65,1.93,3.24,5.64,1.32,8.29c-11.37,15.67-9.94,23.74-7.03,29.57c0.61,1.22,1.72,2.82,2.89,4.51
			c4.47,6.46,11.23,16.23,7.03,29.08c-1.87,5.71-6.4,10.58-13.87,14.88C168.94,112.72,167.92,112.97,166.91,112.97z"/>
	</g>
	<g class="st19">
		<circle class="st20" cx="131.53" cy="122.6" r="4.86"/>
		<circle class="st20" cx="171.5" cy="120.94" r="4.86"/>
		<circle class="st20" cx="92.88" cy="128.41" r="4.86"/>
		<circle class="st20" cx="106.31" cy="113.61" r="2.47"/>
		<circle class="st20" cx="151.81" cy="132.39" r="2.47"/>
		<circle class="st20" cx="186.15" cy="128" r="2.47"/>
		<circle class="st20" cx="150.93" cy="113.61" r="2.47"/>
		<circle class="st20" cx="117.31" cy="132.94" r="2.47"/>
		<circle class="st20" cx="69.98" cy="121.56" r="2.47"/>
	</g>
</g>
<g id="SOUPS_copy" class="st6">
	<ellipse class="st24" cx="128.48" cy="207.17" rx="63.11" ry="23.46"/>
	<ellipse class="st24" cx="128.48" cy="114.7" rx="105.16" ry="41.13"/>
	<ellipse class="st25" cx="128.48" cy="128.41" rx="89.67" ry="35.21"/>
	<ellipse class="st26" cx="128.48" cy="139.41" rx="79.95" ry="35.21"/>
	<path class="st27" d="M128.48,139.59c-38.52,0-85.53-6.57-105.16-22.5c1.5,56.81,47.99,97.66,105.16,97.66
		s103.66-40.85,105.16-97.66C210.02,132.23,167,139.59,128.48,139.59z"/>
	<g class="st9">
		<defs>
			<path id="SVGID_9_" d="M128,139.59c-38.52,0-85.53-6.57-105.16-22.5c1.5,56.81,47.99,97.66,105.16,97.66
				s103.66-40.85,105.16-97.66C209.54,132.23,166.52,139.59,128,139.59z"/>
		</defs>
		<clipPath id="SVGID_10_">
			<use xlink:href="#SVGID_9_"  style="overflow:visible;"/>
		</clipPath>
		<g class="st28">
			<path class="st17" d="M128,148.71c-57.87,0-116.46-14.94-116.46-43.51c0-2.62,2.13-4.75,4.75-4.75s4.75,2.13,4.75,4.75
				c0,16.35,40.89,34.01,106.95,34.01c66.06,0,106.95-17.65,106.95-34.01c0-2.62,2.13-4.75,4.75-4.75s4.75,2.13,4.75,4.75
				C244.45,133.76,185.87,148.71,128,148.71z"/>
		</g>
	</g>
	<g>
		<path class="st18" d="M78.94,112.97c-2.05,0-4.05-1.07-5.15-2.97c-1.64-2.84-0.66-6.47,2.18-8.11c4.75-2.74,7.61-5.53,8.51-8.29
			c2.37-7.24-1.63-13.03-5.51-18.63c-1.42-2.05-2.76-3.99-3.75-5.97c-6.28-12.61-3.8-25.52,8.05-41.85
			c1.93-2.66,5.64-3.24,8.29-1.32c2.65,1.93,3.24,5.64,1.32,8.29c-11.37,15.67-9.94,23.75-7.03,29.58c0.61,1.22,1.71,2.82,2.88,4.51
			c4.47,6.46,11.23,16.23,7.03,29.08c-1.87,5.71-6.4,10.58-13.87,14.88C80.97,112.72,79.95,112.97,78.94,112.97z"/>
	</g>
	<g>
		<path class="st18" d="M123.86,112.97c-2.05,0-4.05-1.07-5.15-2.97c-1.64-2.84-0.66-6.47,2.18-8.11c4.75-2.74,7.61-5.53,8.52-8.29
			c2.37-7.24-1.63-13.03-5.51-18.62c-1.42-2.05-2.76-3.99-3.75-5.97c-6.28-12.61-3.8-25.52,8.05-41.85
			c1.93-2.66,5.64-3.24,8.29-1.32c2.65,1.93,3.24,5.64,1.32,8.29c-11.37,15.67-9.94,23.75-7.03,29.58c0.61,1.22,1.71,2.82,2.89,4.51
			c4.47,6.46,11.23,16.23,7.02,29.08c-1.87,5.71-6.4,10.58-13.87,14.88C125.89,112.72,124.87,112.97,123.86,112.97z"/>
	</g>
	<g>
		<path class="st18" d="M166.91,112.97c-2.05,0-4.05-1.07-5.15-2.97c-1.64-2.84-0.67-6.47,2.18-8.11c4.75-2.74,7.61-5.53,8.51-8.29
			c2.37-7.24-1.63-13.03-5.51-18.63c-1.42-2.05-2.76-3.99-3.75-5.97c-6.28-12.61-3.8-25.52,8.05-41.85
			c1.93-2.65,5.64-3.24,8.29-1.32c2.65,1.93,3.24,5.64,1.32,8.29c-11.37,15.67-9.94,23.74-7.03,29.57c0.61,1.22,1.72,2.82,2.89,4.51
			c4.47,6.46,11.23,16.23,7.03,29.08c-1.87,5.71-6.4,10.58-13.87,14.88C168.94,112.72,167.92,112.97,166.91,112.97z"/>
	</g>
	<g class="st9">
		<circle class="st29" cx="131.53" cy="122.6" r="4.86"/>
		<circle class="st29" cx="171.5" cy="120.94" r="4.86"/>
		<circle class="st29" cx="92.88" cy="128.41" r="4.86"/>
		<circle class="st29" cx="106.31" cy="113.61" r="2.47"/>
		<circle class="st29" cx="151.81" cy="132.39" r="2.47"/>
		<circle class="st29" cx="186.15" cy="128" r="2.47"/>
		<circle class="st29" cx="150.93" cy="113.61" r="2.47"/>
		<circle class="st29" cx="117.31" cy="132.94" r="2.47"/>
		<circle class="st29" cx="69.98" cy="121.56" r="2.47"/>
	</g>
</g>
<g id="SOUP_copy" class="st6">
	<ellipse class="st30" cx="128.48" cy="207.17" rx="63.11" ry="23.46"/>
	<ellipse class="st31" cx="128.48" cy="114.7" rx="105.16" ry="41.13"/>
	<ellipse class="st32" cx="128.48" cy="128.41" rx="89.67" ry="35.21"/>
	<ellipse class="st33" cx="128.48" cy="139.41" rx="79.95" ry="35.21"/>
	<path class="st34" d="M128.48,139.59c-38.52,0-85.53-6.57-105.16-22.5c1.5,56.81,47.99,97.66,105.16,97.66
		s103.66-40.85,105.16-97.66C210.02,132.23,167,139.59,128.48,139.59z"/>
	<g class="st9">
		<defs>
			<path id="SVGID_11_" d="M128.48,139.59c-38.52,0-85.53-6.57-105.16-22.5c1.5,56.81,47.99,97.66,105.16,97.66
				s103.66-40.85,105.16-97.66C210.02,132.23,167,139.59,128.48,139.59z"/>
		</defs>
		<clipPath id="SVGID_12_">
			<use xlink:href="#SVGID_11_"  style="overflow:visible;"/>
		</clipPath>
		<g class="st35">
			<path class="st17" d="M128.48,148.71c-57.87,0-116.46-14.94-116.46-43.51c0-2.62,2.13-4.75,4.75-4.75s4.75,2.13,4.75,4.75
				c0,16.35,40.89,34.01,106.95,34.01c66.06,0,106.95-17.65,106.95-34.01c0-2.62,2.13-4.75,4.75-4.75c2.62,0,4.75,2.13,4.75,4.75
				C244.94,133.76,186.35,148.71,128.48,148.71z"/>
		</g>
	</g>
	<g>
		<path class="st18" d="M78.94,112.97c-2.05,0-4.05-1.07-5.15-2.97c-1.64-2.84-0.66-6.47,2.18-8.11c4.75-2.74,7.61-5.53,8.51-8.29
			c2.37-7.24-1.63-13.03-5.51-18.63c-1.42-2.05-2.76-3.99-3.75-5.97c-6.28-12.61-3.8-25.52,8.05-41.85
			c1.93-2.66,5.64-3.24,8.29-1.32c2.65,1.93,3.24,5.64,1.32,8.29c-11.37,15.67-9.94,23.75-7.03,29.58c0.61,1.22,1.71,2.82,2.88,4.51
			c4.47,6.46,11.23,16.23,7.03,29.08c-1.87,5.71-6.4,10.58-13.87,14.88C80.97,112.72,79.95,112.97,78.94,112.97z"/>
	</g>
	<g>
		<path class="st18" d="M123.86,112.97c-2.05,0-4.05-1.07-5.15-2.97c-1.64-2.84-0.66-6.47,2.18-8.11c4.75-2.74,7.61-5.53,8.52-8.29
			c2.37-7.24-1.63-13.03-5.51-18.62c-1.42-2.05-2.76-3.99-3.75-5.97c-6.28-12.61-3.8-25.52,8.05-41.85
			c1.93-2.66,5.64-3.24,8.29-1.32c2.65,1.93,3.24,5.64,1.32,8.29c-11.37,15.67-9.94,23.75-7.03,29.58c0.61,1.22,1.71,2.82,2.89,4.51
			c4.47,6.46,11.23,16.23,7.02,29.08c-1.87,5.71-6.4,10.58-13.87,14.88C125.89,112.72,124.87,112.97,123.86,112.97z"/>
	</g>
	<g>
		<path class="st18" d="M166.91,112.97c-2.05,0-4.05-1.07-5.15-2.97c-1.64-2.84-0.67-6.47,2.18-8.11c4.75-2.74,7.61-5.53,8.51-8.29
			c2.37-7.24-1.63-13.03-5.51-18.63c-1.42-2.05-2.76-3.99-3.75-5.97c-6.28-12.61-3.8-25.52,8.05-41.85
			c1.93-2.65,5.64-3.24,8.29-1.32c2.65,1.93,3.24,5.64,1.32,8.29c-11.37,15.67-9.94,23.74-7.03,29.57c0.61,1.22,1.72,2.82,2.89,4.51
			c4.47,6.46,11.23,16.23,7.03,29.08c-1.87,5.71-6.4,10.58-13.87,14.88C168.94,112.72,167.92,112.97,166.91,112.97z"/>
	</g>
	<g class="st9">
		<circle class="st36" cx="131.53" cy="122.6" r="4.86"/>
		<circle class="st36" cx="171.5" cy="120.94" r="4.86"/>
		<circle class="st36" cx="92.88" cy="128.41" r="4.86"/>
		<circle class="st36" cx="106.31" cy="113.61" r="2.47"/>
		<circle class="st36" cx="151.81" cy="132.39" r="2.47"/>
		<circle class="st36" cx="186.15" cy="128" r="2.47"/>
		<circle class="st36" cx="150.93" cy="113.61" r="2.47"/>
		<circle class="st36" cx="117.31" cy="132.94" r="2.47"/>
		<circle class="st36" cx="69.98" cy="121.56" r="2.47"/>
	</g>
</g>
<g id="SOUPB" class="st6">
	<ellipse class="st21" cx="128.48" cy="207.17" rx="63.11" ry="23.46"/>
	<ellipse class="st21" cx="128.48" cy="114.7" rx="105.16" ry="41.13"/>
	<ellipse class="st13" cx="128.48" cy="128.41" rx="89.67" ry="35.21"/>
	<ellipse class="st14" cx="128.48" cy="139.41" rx="79.95" ry="35.21"/>
	<path class="st22" d="M128.48,139.59c-38.52,0-85.53-6.57-105.16-22.5c1.5,56.81,47.99,97.66,105.16,97.66
		s103.66-40.85,105.16-97.66C210.02,132.23,167,139.59,128.48,139.59z"/>
	<g class="st9">
		<defs>
			<path id="SVGID_13_" d="M128.48,139.59c-38.52,0-85.53-6.57-105.16-22.5c1.5,56.81,47.99,97.66,105.16,97.66
				s103.66-40.85,105.16-97.66C210.02,132.23,167,139.59,128.48,139.59z"/>
		</defs>
		<clipPath id="SVGID_14_">
			<use xlink:href="#SVGID_13_"  style="overflow:visible;"/>
		</clipPath>
		<g class="st37">
			<path class="st17" d="M128,148.71c-57.87,0-116.46-14.94-116.46-43.51c0-2.62,2.13-4.75,4.75-4.75s4.75,2.13,4.75,4.75
				c0,16.35,40.89,34.01,106.95,34.01c66.06,0,106.95-17.65,106.95-34.01c0-2.62,2.13-4.75,4.75-4.75s4.75,2.13,4.75,4.75
				C244.45,133.76,185.87,148.71,128,148.71z"/>
		</g>
	</g>
	<g class="st9">
		<path class="st38" d="M78.94,112.97c-2.05,0-4.05-1.07-5.15-2.97c-1.64-2.84-0.66-6.47,2.18-8.11c4.75-2.74,7.61-5.53,8.51-8.29
			c2.37-7.24-1.63-13.03-5.51-18.63c-1.42-2.05-2.76-3.99-3.75-5.97c-6.28-12.61-3.8-25.52,8.05-41.85
			c1.93-2.66,5.64-3.24,8.29-1.32c2.65,1.93,3.24,5.64,1.32,8.29c-11.37,15.67-9.94,23.75-7.03,29.58c0.61,1.22,1.71,2.82,2.88,4.51
			c4.47,6.46,11.23,16.23,7.03,29.08c-1.87,5.71-6.4,10.58-13.87,14.88C80.97,112.72,79.95,112.97,78.94,112.97z"/>
	</g>
	<g class="st9">
		<path class="st38" d="M123.86,112.97c-2.05,0-4.05-1.07-5.15-2.97c-1.64-2.84-0.66-6.47,2.18-8.11c4.75-2.74,7.61-5.53,8.52-8.29
			c2.37-7.24-1.63-13.03-5.51-18.62c-1.42-2.05-2.76-3.99-3.75-5.97c-6.28-12.61-3.8-25.52,8.05-41.85
			c1.93-2.66,5.64-3.24,8.29-1.32c2.65,1.93,3.24,5.64,1.32,8.29c-11.37,15.67-9.94,23.75-7.03,29.58c0.61,1.22,1.71,2.82,2.89,4.51
			c4.47,6.46,11.23,16.23,7.02,29.08c-1.87,5.71-6.4,10.58-13.87,14.88C125.89,112.72,124.87,112.97,123.86,112.97z"/>
	</g>
	<g class="st9">
		<path class="st38" d="M166.91,112.97c-2.05,0-4.05-1.07-5.15-2.97c-1.64-2.84-0.67-6.47,2.18-8.11c4.75-2.74,7.61-5.53,8.51-8.29
			c2.37-7.24-1.63-13.03-5.51-18.63c-1.42-2.05-2.76-3.99-3.75-5.97c-6.28-12.61-3.8-25.52,8.05-41.85
			c1.93-2.65,5.64-3.24,8.29-1.32c2.65,1.93,3.24,5.64,1.32,8.29c-11.37,15.67-9.94,23.74-7.03,29.57c0.61,1.22,1.72,2.82,2.89,4.51
			c4.47,6.46,11.23,16.23,7.03,29.08c-1.87,5.71-6.4,10.58-13.87,14.88C168.94,112.72,167.92,112.97,166.91,112.97z"/>
	</g>
	<g class="st19">
		<circle class="st20" cx="131.53" cy="122.6" r="4.86"/>
		<circle class="st20" cx="171.5" cy="120.94" r="4.86"/>
		<circle class="st20" cx="92.88" cy="128.41" r="4.86"/>
		<circle class="st20" cx="106.31" cy="113.61" r="2.47"/>
		<circle class="st20" cx="151.81" cy="132.39" r="2.47"/>
		<circle class="st20" cx="186.15" cy="128" r="2.47"/>
		<circle class="st20" cx="150.93" cy="113.61" r="2.47"/>
		<circle class="st20" cx="117.31" cy="132.94" r="2.47"/>
		<circle class="st20" cx="69.98" cy="121.56" r="2.47"/>
	</g>
</g>
<g id="SOUPS" class="st6">
	<ellipse class="st24" cx="128.48" cy="207.17" rx="63.11" ry="23.46"/>
	<ellipse class="st24" cx="128.48" cy="114.7" rx="105.16" ry="41.13"/>
	<ellipse class="st25" cx="128.48" cy="128.41" rx="89.67" ry="35.21"/>
	<ellipse class="st26" cx="128.48" cy="139.41" rx="79.95" ry="35.21"/>
	<path class="st27" d="M128.48,139.59c-38.52,0-85.53-6.57-105.16-22.5c1.5,56.81,47.99,97.66,105.16,97.66
		s103.66-40.85,105.16-97.66C210.02,132.23,167,139.59,128.48,139.59z"/>
	<g class="st9">
		<defs>
			<path id="SVGID_15_" d="M128,139.59c-38.52,0-85.53-6.57-105.16-22.5c1.5,56.81,47.99,97.66,105.16,97.66
				s103.66-40.85,105.16-97.66C209.54,132.23,166.52,139.59,128,139.59z"/>
		</defs>
		<clipPath id="SVGID_16_">
			<use xlink:href="#SVGID_15_"  style="overflow:visible;"/>
		</clipPath>
		<g class="st39">
			<path class="st17" d="M128,148.71c-57.87,0-116.46-14.94-116.46-43.51c0-2.62,2.13-4.75,4.75-4.75s4.75,2.13,4.75,4.75
				c0,16.35,40.89,34.01,106.95,34.01c66.06,0,106.95-17.65,106.95-34.01c0-2.62,2.13-4.75,4.75-4.75s4.75,2.13,4.75,4.75
				C244.45,133.76,185.87,148.71,128,148.71z"/>
		</g>
	</g>
	<g class="st9">
		<path class="st38" d="M78.94,112.97c-2.05,0-4.05-1.07-5.15-2.97c-1.64-2.84-0.66-6.47,2.18-8.11c4.75-2.74,7.61-5.53,8.51-8.29
			c2.37-7.24-1.63-13.03-5.51-18.63c-1.42-2.05-2.76-3.99-3.75-5.97c-6.28-12.61-3.8-25.52,8.05-41.85
			c1.93-2.66,5.64-3.24,8.29-1.32c2.65,1.93,3.24,5.64,1.32,8.29c-11.37,15.67-9.94,23.75-7.03,29.58c0.61,1.22,1.71,2.82,2.88,4.51
			c4.47,6.46,11.23,16.23,7.03,29.08c-1.87,5.71-6.4,10.58-13.87,14.88C80.97,112.72,79.95,112.97,78.94,112.97z"/>
	</g>
	<g class="st9">
		<path class="st38" d="M123.86,112.97c-2.05,0-4.05-1.07-5.15-2.97c-1.64-2.84-0.66-6.47,2.18-8.11c4.75-2.74,7.61-5.53,8.52-8.29
			c2.37-7.24-1.63-13.03-5.51-18.62c-1.42-2.05-2.76-3.99-3.75-5.97c-6.28-12.61-3.8-25.52,8.05-41.85
			c1.93-2.66,5.64-3.24,8.29-1.32c2.65,1.93,3.24,5.64,1.32,8.29c-11.37,15.67-9.94,23.75-7.03,29.58c0.61,1.22,1.71,2.82,2.89,4.51
			c4.47,6.46,11.23,16.23,7.02,29.08c-1.87,5.71-6.4,10.58-13.87,14.88C125.89,112.72,124.87,112.97,123.86,112.97z"/>
	</g>
	<g class="st9">
		<path class="st38" d="M166.91,112.97c-2.05,0-4.05-1.07-5.15-2.97c-1.64-2.84-0.67-6.47,2.18-8.11c4.75-2.74,7.61-5.53,8.51-8.29
			c2.37-7.24-1.63-13.03-5.51-18.63c-1.42-2.05-2.76-3.99-3.75-5.97c-6.28-12.61-3.8-25.52,8.05-41.85
			c1.93-2.65,5.64-3.24,8.29-1.32c2.65,1.93,3.24,5.64,1.32,8.29c-11.37,15.67-9.94,23.74-7.03,29.57c0.61,1.22,1.72,2.82,2.89,4.51
			c4.47,6.46,11.23,16.23,7.03,29.08c-1.87,5.71-6.4,10.58-13.87,14.88C168.94,112.72,167.92,112.97,166.91,112.97z"/>
	</g>
	<g class="st9">
		<circle class="st29" cx="131.53" cy="122.6" r="4.86"/>
		<circle class="st29" cx="171.5" cy="120.94" r="4.86"/>
		<circle class="st29" cx="92.88" cy="128.41" r="4.86"/>
		<circle class="st29" cx="106.31" cy="113.61" r="2.47"/>
		<circle class="st29" cx="151.81" cy="132.39" r="2.47"/>
		<circle class="st29" cx="186.15" cy="128" r="2.47"/>
		<circle class="st29" cx="150.93" cy="113.61" r="2.47"/>
		<circle class="st29" cx="117.31" cy="132.94" r="2.47"/>
		<circle class="st29" cx="69.98" cy="121.56" r="2.47"/>
	</g>
</g>
<g id="SOUP" class="st6">
	<circle class="st40" cx="128.41" cy="128.41" r="126.59"/>
	<ellipse class="st30" cx="128.48" cy="195.46" rx="53.81" ry="20"/>
	<ellipse class="st31" cx="128.48" cy="116.61" rx="89.67" ry="35.07"/>
	<ellipse class="st32" cx="128.48" cy="128.3" rx="76.46" ry="30.02"/>
	<ellipse class="st33" cx="128.48" cy="137.68" rx="68.17" ry="30.02"/>
	<path class="st34" d="M128.48,137.83c-32.85,0-72.93-5.6-89.67-19.18c1.28,48.44,40.92,83.27,89.67,83.27s88.39-34.83,89.67-83.27
		C198.01,131.56,161.33,137.83,128.48,137.83z"/>
	<g class="st9">
		<defs>
			<path id="SVGID_17_" d="M128.48,137.83c-32.85,0-72.93-5.6-89.67-19.18c1.28,48.44,40.92,83.27,89.67,83.27
				s88.39-34.83,89.67-83.27C198.01,131.56,161.33,137.83,128.48,137.83z"/>
		</defs>
		<clipPath id="SVGID_18_">
			<use xlink:href="#SVGID_17_"  style="overflow:visible;"/>
		</clipPath>
		<g class="st41">
			<path class="st17" d="M128.48,145.61c-49.34,0-99.3-12.74-99.3-37.1c0-2.24,1.81-4.05,4.05-4.05c2.24,0,4.05,1.81,4.05,4.05
				c0,13.94,34.87,29,91.2,29c56.33,0,91.2-15.05,91.2-29c0-2.24,1.81-4.05,4.05-4.05s4.05,1.81,4.05,4.05
				C227.78,132.86,177.83,145.61,128.48,145.61z"/>
		</g>
	</g>
	<g class="st9">
		<path class="st38" d="M86.24,115.14c-1.75,0-3.45-0.91-4.39-2.53c-1.4-2.42-0.57-5.52,1.86-6.92c4.05-2.33,6.49-4.71,7.26-7.07
			c2.02-6.17-1.39-11.11-4.7-15.88c-1.21-1.75-2.35-3.4-3.2-5.09c-5.36-10.75-3.24-21.76,6.87-35.68c1.64-2.26,4.81-2.77,7.07-1.12
			c2.26,1.64,2.77,4.81,1.12,7.07c-9.7,13.36-8.47,20.25-6,25.22c0.52,1.04,1.46,2.4,2.46,3.85c3.81,5.51,9.58,13.84,5.99,24.79
			c-1.59,4.87-5.46,9.02-11.82,12.69C87.97,114.92,87.1,115.14,86.24,115.14z"/>
	</g>
	<g class="st9">
		<path class="st38" d="M124.54,115.14c-1.75,0-3.45-0.91-4.39-2.53c-1.4-2.42-0.57-5.52,1.86-6.92c4.05-2.33,6.49-4.71,7.26-7.07
			c2.02-6.17-1.39-11.11-4.69-15.88c-1.21-1.75-2.35-3.4-3.2-5.09c-5.36-10.75-3.24-21.76,6.87-35.68c1.64-2.26,4.81-2.77,7.07-1.12
			c2.26,1.64,2.76,4.81,1.12,7.07c-9.7,13.36-8.47,20.25-6,25.22c0.52,1.04,1.46,2.4,2.46,3.85c3.81,5.51,9.58,13.84,5.99,24.79
			c-1.59,4.87-5.46,9.02-11.82,12.69C126.27,114.92,125.4,115.14,124.54,115.14z"/>
	</g>
	<g class="st9">
		<path class="st38" d="M161.25,115.14c-1.75,0-3.45-0.91-4.39-2.53c-1.4-2.42-0.57-5.52,1.86-6.92c4.05-2.33,6.49-4.71,7.26-7.07
			c2.02-6.18-1.39-11.11-4.7-15.88c-1.21-1.75-2.35-3.4-3.19-5.09c-5.36-10.75-3.24-21.76,6.86-35.68c1.64-2.26,4.81-2.76,7.07-1.12
			c2.26,1.64,2.76,4.81,1.12,7.07c-9.7,13.36-8.47,20.24-6,25.22c0.52,1.04,1.46,2.4,2.46,3.85c3.81,5.51,9.57,13.84,5.99,24.79
			c-1.59,4.87-5.46,9.02-11.82,12.69C162.98,114.92,162.11,115.14,161.25,115.14z"/>
	</g>
	<g class="st9">
		<circle class="st36" cx="131.08" cy="123.34" r="4.14"/>
		<circle class="st36" cx="165.16" cy="121.93" r="4.14"/>
		<circle class="st36" cx="98.12" cy="128.3" r="4.14"/>
		<circle class="st36" cx="109.58" cy="115.68" r="2.1"/>
		<circle class="st36" cx="148.37" cy="131.69" r="2.1"/>
		<circle class="st36" cx="177.65" cy="127.95" r="2.1"/>
		<circle class="st36" cx="147.63" cy="115.68" r="2.1"/>
		<circle class="st36" cx="118.96" cy="132.16" r="2.1"/>
		<circle class="st36" cx="78.6" cy="122.46" r="2.1"/>
	</g>
</g>
</svg>
