<svg id="Layer_1" data-name="Layer 1" xmlns="http://www.w3.org/2000/svg" xmlns:xlink="http://www.w3.org/1999/xlink" viewBox="0 0 283.04 235.02"><defs><style>.cls-1{fill:none;}.cls-2{fill:#ba2e2c;}.cls-3{fill:#ce3030;}.cls-4{fill:#bcae31;}.cls-5{fill:#d1ca38;}.cls-6{fill:#ef4136;}.cls-7{clip-path:url(#clip-path);}.cls-8{opacity:0.22;}.cls-9{fill:#fff;stroke:#fff;stroke-miterlimit:10;stroke-width:8px;}.cls-10{fill:#fae6ab;}.cls-11{fill:#e4d95d;}</style><clipPath id="clip-path" transform="translate(13.04 -10.16)"><path class="cls-1" d="M128.48,141.27c-45.49,0-101-7.5-124.18-25.67C6.07,180.44,61,227.06,128.48,227.06S250.89,180.44,252.66,115.6C224.77,132.88,174,141.27,128.48,141.27Z"/></clipPath></defs><title>SOUP-favicon</title><g id="SOUP"><ellipse class="cls-2" cx="141.52" cy="208.25" rx="74.52" ry="26.77"/><ellipse class="cls-3" cx="141.52" cy="102.71" rx="124.18" ry="46.94"/><ellipse class="cls-4" cx="141.52" cy="118.35" rx="105.89" ry="40.18"/><ellipse class="cls-5" cx="141.52" cy="130.91" rx="94.41" ry="40.18"/><path class="cls-6" d="M128.48,141.27c-45.49,0-101-7.5-124.18-25.67C6.07,180.44,61,227.06,128.48,227.06S250.89,180.44,252.66,115.6C224.77,132.88,174,141.27,128.48,141.27Z" transform="translate(13.04 -10.16)"/><g class="cls-7"><g class="cls-8"><path class="cls-9" d="M128.48,151.68C60.15,151.68-9,134.63-9,102A5.52,5.52,0,0,1-3.43,96.6,5.51,5.51,0,0,1,2.18,102c0,18.66,48.29,38.82,126.3,38.82S254.78,120.7,254.78,102A5.61,5.61,0,0,1,266,102C266,134.62,196.82,151.68,128.48,151.68Z" transform="translate(13.04 -10.16)"/></g></g><path class="cls-10" d="M70,110.9a7.08,7.08,0,0,1-6.08-3.39,6.65,6.65,0,0,1,2.58-9.26c5.61-3.12,9-6.31,10-9.46,2.8-8.26-1.92-14.88-6.51-21.26a59.94,59.94,0,0,1-4.43-6.81C58.17,46.33,61.11,31.59,75.11,13a7.15,7.15,0,0,1,9.79-1.5,6.62,6.62,0,0,1,1.55,9.46C73,38.8,74.72,48,78.14,54.68a49.42,49.42,0,0,0,3.41,5.15C86.82,67.21,94.81,78.36,89.84,93c-2.2,6.52-7.56,12.08-16.37,17A7.26,7.26,0,0,1,70,110.9Z" transform="translate(13.04 -10.16)"/><path class="cls-10" d="M123,110.9a7.09,7.09,0,0,1-6.08-3.39,6.65,6.65,0,0,1,2.58-9.26c5.61-3.12,9-6.31,10-9.46,2.8-8.26-1.92-14.88-6.49-21.26a57.32,57.32,0,0,1-4.43-6.81c-7.43-14.39-4.49-29.13,9.51-47.76a7.15,7.15,0,0,1,9.79-1.5,6.63,6.63,0,0,1,1.55,9.46C126.07,38.8,127.77,48,131.19,54.68a51.09,51.09,0,0,0,3.41,5.15c5.28,7.38,13.27,18.53,8.3,33.18-2.21,6.52-7.56,12.08-16.37,17A7.39,7.39,0,0,1,123,110.9Z" transform="translate(13.04 -10.16)"/><path class="cls-10" d="M173.86,110.9a7.08,7.08,0,0,1-6.08-3.39,6.65,6.65,0,0,1,2.58-9.26c5.61-3.12,9-6.31,10-9.46,2.8-8.28-1.92-14.88-6.51-21.26a57.07,57.07,0,0,1-4.41-6.81C162.06,46.33,165,31.59,179,13a7.16,7.16,0,0,1,9.79-1.5,6.63,6.63,0,0,1,1.55,9.46C176.9,38.8,178.6,48,182,54.68a49.42,49.42,0,0,0,3.41,5.15c5.27,7.38,13.25,18.53,8.29,33.18-2.2,6.52-7.56,12.08-16.37,17A7.26,7.26,0,0,1,173.86,110.9Z" transform="translate(13.04 -10.16)"/><ellipse class="cls-11" cx="145.12" cy="111.71" rx="5.73" ry="5.54"/><ellipse class="cls-11" cx="192.32" cy="109.83" rx="5.73" ry="5.54"/><ellipse class="cls-11" cx="99.47" cy="118.35" rx="5.73" ry="5.54"/><ellipse class="cls-11" cx="115.34" cy="101.46" rx="2.91" ry="2.81"/><ellipse class="cls-11" cx="169.06" cy="122.89" rx="2.91" ry="2.81"/><ellipse class="cls-11" cx="209.61" cy="117.89" rx="2.91" ry="2.81"/><ellipse class="cls-11" cx="168.04" cy="101.46" rx="2.91" ry="2.81"/><ellipse class="cls-11" cx="128.33" cy="123.52" rx="2.91" ry="2.81"/><ellipse class="cls-11" cx="72.44" cy="110.54" rx="2.91" ry="2.81"/></g></svg>